<?xml version="1.0" encoding="UTF-8"?>
<svg width="151px" height="151px" viewBox="0 0 151 151" version="1.1" xmlns="http://www.w3.org/2000/svg" xmlns:xlink="http://www.w3.org/1999/xlink">
    <title>algorithm</title>
    <g id="Home-Page-Option-&quot;2&quot;" stroke="none" stroke-width="1" fill="none" fill-rule="evenodd">
        <g id="Home-Page--Copy-5" transform="translate(-679.000000, -2372.000000)" fill="#194481" fill-rule="nonzero">
            <g id="algorithm" transform="translate(679.000000, 2372.000000)">
                <path d="M76,93 C69.3835936,93 64,98.3835936 64,105 C64,111.616406 69.3835936,117 76,117 C82.6164064,117 88,111.616406 88,105 C88,98.3835936 82.6164064,93 76,93 Z M76,112.2 C72.0308593,112.2 68.8,108.969141 68.8,105 C68.8,101.030859 72.0308593,97.8 76,97.8 C79.9691407,97.8 83.2,101.030859 83.2,105 C83.2,108.969141 79.9691407,112.2 76,112.2 Z" id="Shape"></path>
                <polygon id="Path" points="73 11 92 11 92 15 73 15"></polygon>
                <polygon id="Path" points="73 19 92 19 92 23 73 23"></polygon>
                <polygon id="Path" points="59 30 93 30 93 34 59 34"></polygon>
                <polygon id="Path" points="59 39 93 39 93 43 59 43"></polygon>
                <polygon id="Path" points="59 49 93 49 93 53 59 53"></polygon>
                <path d="M151,77.9354839 L151,58.4516129 L116.903226,58.4516129 L116.903226,77.9354839 L131.516129,77.9354839 L131.516129,102.290323 L102.290323,102.290323 L102.290323,98.0983887 L96.3110194,96.1040986 L99.1294262,90.4684744 L89.757332,81.0963803 L84.1193296,83.9171656 L82.1274177,77.9354839 L77.9354839,77.9354839 L77.9354839,63.3225806 L102.290323,63.3225806 L102.290323,34.0967742 L131.516129,34.0967742 L131.516129,47.7012349 L125.931641,42.1167465 L122.487714,45.5606729 L133.951613,57.0245716 L145.415512,45.5606729 L141.971585,42.1167465 L136.387097,47.7012349 L136.387097,29.2258065 L102.290323,29.2258065 L102.290323,0 L64.749622,0 L48.7096774,16.0399446 L48.7096774,29.2258065 L14.6129032,29.2258065 L14.6129032,47.7012349 L9.02841482,42.1167465 L5.58448841,45.5606729 L17.0483871,57.0245716 L28.5122858,45.5606729 L25.0683594,42.1167465 L19.483871,47.7012349 L19.483871,34.0967742 L48.7096774,34.0967742 L48.7096774,63.3225806 L73.0645161,63.3225806 L73.0645161,77.9354839 L68.8725823,77.9354839 L66.8806704,83.9171656 L61.242668,81.0963803 L51.8705738,90.4684744 L54.6889806,96.1040986 L48.7096774,98.0983887 L48.7096774,102.290323 L19.483871,102.290323 L19.483871,77.9354839 L34.0967742,77.9354839 L34.0967742,58.4516129 L0,58.4516129 L0,77.9354839 L14.6129032,77.9354839 L14.6129032,117.249283 C10.4209694,118.337402 7.30645161,122.120251 7.30645161,126.645161 C7.30645161,132.017972 11.6755763,136.387097 17.0483871,136.387097 C22.4211979,136.387097 26.7903226,132.017972 26.7903226,126.645161 C26.7903226,122.120251 23.6758048,118.337402 19.483871,117.249283 L19.483871,107.16129 L34.0967742,107.16129 L34.0967742,136.835426 C31.2688541,137.843868 29.2258065,140.523138 29.2258065,143.693548 C29.2258065,147.721373 32.5044338,151 36.5322581,151 C40.5600823,151 43.8387097,147.721373 43.8387097,143.693548 C43.8387097,140.523138 41.795662,137.843868 38.9677419,136.835426 L38.9677419,107.16129 L48.7096774,107.16129 L48.7096774,111.353224 L54.6889806,113.347514 L51.8705738,118.983138 L61.242668,128.355233 L66.8806704,125.534447 L68.8725823,131.516129 L82.1250395,131.516129 L84.1169514,125.534447 L89.7549538,128.355233 L99.1270476,118.983138 L96.3086409,113.347514 L102.290323,111.353224 L102.290323,107.16129 L112.032258,107.16129 L112.032258,136.835426 C109.204338,137.843868 107.16129,140.523138 107.16129,143.693548 C107.16129,147.721373 110.439918,151 114.467742,151 C118.495566,151 121.774194,147.721373 121.774194,143.693548 C121.774194,140.523138 119.731146,137.843868 116.903226,136.835426 L116.903226,107.16129 L131.516129,107.16129 L131.516129,117.249283 C127.324195,118.337402 124.209677,122.120251 124.209677,126.645161 C124.209677,132.017972 128.578802,136.387097 133.951613,136.387097 C139.324424,136.387097 143.693548,132.017972 143.693548,126.645161 C143.693548,122.120251 140.579031,118.337402 136.387097,117.249283 L136.387097,77.9354839 L151,77.9354839 Z M63.3225806,8.31489415 L63.3225806,14.6129032 L57.0245716,14.6129032 L63.3225806,8.31489415 Z M53.5806452,19.483871 L68.1935484,19.483871 L68.1935484,4.87096774 L97.4193548,4.87096774 L97.4193548,58.4516129 L53.5806452,58.4516129 L53.5806452,19.483871 Z M4.87096774,63.3225806 L29.2258065,63.3225806 L29.2258065,73.0645161 L4.87096774,73.0645161 L4.87096774,63.3225806 Z M21.9193548,126.645161 C21.9193548,129.331567 19.7347925,131.516129 17.0483871,131.516129 C14.3619817,131.516129 12.1774194,129.331567 12.1774194,126.645161 C12.1774194,123.958756 14.3619817,121.774194 17.0483871,121.774194 C19.7347925,121.774194 21.9193548,123.958756 21.9193548,126.645161 Z M36.5322581,146.129032 C35.188461,146.129032 34.0967742,145.034967 34.0967742,143.693548 C34.0967742,142.35213 35.188461,141.258065 36.5322581,141.258065 C37.8760552,141.258065 38.9677419,142.35213 38.9677419,143.693548 C38.9677419,145.034967 37.8760552,146.129032 36.5322581,146.129032 Z M97.4193548,107.840324 L91.8324882,109.703802 L91.4210244,110.777651 C91.2985367,111.089222 91.1772383,111.399603 91.0428586,111.700471 L90.5707456,112.755292 L93.203637,118.021075 L88.797647,122.427065 L83.5318641,119.794174 L82.4782321,120.266287 C82.1785534,120.400666 81.8741179,120.521965 81.5649257,120.639696 L80.4803742,121.048781 L78.6145178,126.645161 L72.383104,126.645161 L70.5172472,121.048781 L69.4326958,120.639696 C69.1235038,120.521965 68.8190683,120.400666 68.5193893,120.266287 L67.4657573,119.794174 L62.1999748,122.427065 L57.7939848,118.021075 L60.4268759,112.755292 L59.9547631,111.700471 C59.8180049,111.396035 59.6990848,111.089222 59.576597,110.777651 L59.1651336,109.703802 L53.5806452,107.840324 L53.5806452,101.60891 L59.1675118,99.7454322 L59.5789756,98.6715835 C59.7014633,98.360013 59.8227617,98.0496313 59.9571414,97.7475743 L60.4292544,96.6939423 L57.796363,91.4281595 L62.202353,87.0221695 L67.4681359,89.6550609 L68.5217679,89.1829478 C68.8214466,89.0485682 69.1258821,88.9272698 69.4350743,88.8095388 L70.5196258,88.4004536 L72.3854822,82.8064516 L78.616896,82.8064516 L80.4827528,88.4028319 L81.5673042,88.8119171 C81.8764962,88.929648 82.1809317,89.0509467 82.4806107,89.1853264 L83.5342427,89.6574391 L88.8000252,87.024548 L93.2060152,91.4305381 L90.5731241,96.6963206 L91.0452369,97.751142 C91.1819951,98.0555775 91.3009152,98.3623912 91.423403,98.6739621 L91.8348664,99.7478108 L97.4193548,101.611289 L97.4193548,107.840324 Z M114.467742,146.129032 C113.123945,146.129032 112.032258,145.034967 112.032258,143.693548 C112.032258,142.35213 113.123945,141.258065 114.467742,141.258065 C115.811539,141.258065 116.903226,142.35213 116.903226,143.693548 C116.903226,145.034967 115.811539,146.129032 114.467742,146.129032 Z M138.822581,126.645161 C138.822581,129.331567 136.638018,131.516129 133.951613,131.516129 C131.265208,131.516129 129.080645,129.331567 129.080645,126.645161 C129.080645,123.958756 131.265208,121.774194 133.951613,121.774194 C136.638018,121.774194 138.822581,123.958756 138.822581,126.645161 Z M121.774194,63.3225806 L146.129032,63.3225806 L146.129032,73.0645161 L121.774194,73.0645161 L121.774194,63.3225806 Z" id="Shape"></path>
            </g>
        </g>
    </g>
</svg>