<?xml version="1.0" encoding="UTF-8"?>
<svg width="59px" height="57px" viewBox="0 0 59 57" version="1.1" xmlns="http://www.w3.org/2000/svg" xmlns:xlink="http://www.w3.org/1999/xlink">
    <title>pharmacist copy</title>
    <g id="Home-Page-Final" stroke="none" stroke-width="1" fill="none" fill-rule="evenodd">
        <g id="Home-Page-Option-&quot;2&quot;-V.3" transform="translate(-509.000000, -1667.000000)" fill="#FFFFFF" fill-rule="nonzero">
            <g id="pharmacist-copy" transform="translate(509.000000, 1667.000000)">
                <path d="M56.05,32.7026367 L56.05,0.95 C56.05,0.425366181 55.6097087,0 55.0666667,0 L3.93333333,0 C3.39029131,0 2.95,0.425366181 2.95,0.95 L2.95,32.7026367 C1.16050615,33.4573487 0.00240071,35.1634521 0,37.05 L0,56.05 C0,56.5746338 0.44029131,57 0.983333333,57 L58.0166667,57 C58.5597087,57 59,56.5746338 59,56.05 L59,37.05 C58.9975993,35.1634521 57.8394938,33.4573487 56.05,32.7026367 Z M54.0833333,32.3 L49.1666667,32.3 L49.1666667,29.45 C49.1666667,28.9253662 48.7263754,28.5 48.1833333,28.5 L44.25,28.5 C43.706958,28.5 43.2666667,28.9253662 43.2666667,29.45 L43.2666667,32.3 L41.3,32.3 L41.3,26.6 L51.1333333,26.6 C51.6763754,26.6 52.1166667,26.1746338 52.1166667,25.65 C52.1166667,25.1253662 51.6763754,24.7 51.1333333,24.7 L49.1666667,24.7 L49.1666667,21.85 C49.1666667,21.3253662 48.7263754,20.9 48.1833333,20.9 L44.25,20.9 C43.706958,20.9 43.2666667,21.3253662 43.2666667,21.85 L43.2666667,24.7 L41.3,24.7 C41.2812744,24.7027833 41.2625488,24.7064942 41.2438233,24.7115966 C40.8438639,21.2678466 38.3351155,18.3969727 34.8886475,17.4381591 C35.53396,17.0313477 36.1278971,16.5531006 36.6584554,16.0131591 C37.9217122,14.7194336 38.7806884,13.1070312 39.1364747,11.3619629 C39.2008138,11.3814453 39.2665934,11.3939698 39.3333333,11.4 L51.1333333,11.4 C51.6763754,11.4 52.1166667,10.9746338 52.1166667,10.45 C52.1166667,9.92536618 51.6763754,9.5 51.1333333,9.5 L49.1666667,9.5 L49.1666667,6.65 C49.1666667,6.12536618 48.7263754,5.7 48.1833333,5.7 L44.25,5.7 C43.706958,5.7 43.2666667,6.12536618 43.2666667,6.65 L43.2666667,9.5 L39.3237305,9.5 C39.3237305,9.40490726 39.3323731,9.30981451 39.3294922,9.21008304 C39.2334635,6.31740726 37.7752686,3.6251221 35.3697509,1.9 L54.0833333,1.9 L54.0833333,32.3 Z M47.2,32.3 L45.2333333,32.3 L45.2333333,30.4 L47.2,30.4 L47.2,32.3 Z M27.5333333,32.3 L27.5333333,24.7 L31.4666667,24.7 L31.4666667,32.3 L27.5333333,32.3 Z M19.6666667,32.3 L19.6666667,25.65 C19.6666667,25.4305908 19.6796306,25.213037 19.701237,24.9991943 C19.707959,24.9282227 19.7218832,24.8595703 19.7305257,24.7895263 C19.7502117,24.6466552 19.7698975,24.504248 19.7982259,24.3655518 C19.8150309,24.2839112 19.8366373,24.204126 19.8563233,24.1234131 C19.8870524,23.9990966 19.9182617,23.8743164 19.9547526,23.7518555 C19.9802002,23.6692871 20.0109293,23.5876464 20.040218,23.5060058 C20.0805502,23.3900391 20.1228028,23.275 20.1703369,23.1618164 C20.2044271,23.0801758 20.2418783,23.0003906 20.2793294,22.9196777 C20.3302247,22.8115966 20.3835205,22.7030518 20.4406576,22.5977539 C20.4829102,22.5198242 20.5261231,22.4428223 20.5712565,22.3658203 C20.6322347,22.2633057 20.6960938,22.1617187 20.7681153,22.0619873 C20.8161295,21.9886963 20.8665446,21.916333 20.9174397,21.8453614 C20.9894613,21.7502685 21.0638835,21.6505371 21.1416667,21.560083 C21.1949626,21.49375 21.2477783,21.427417 21.303955,21.3634033 C21.3875,21.2687744 21.4758464,21.1736817 21.5646728,21.0869385 C21.6213298,21.029419 21.6765462,20.9705078 21.7356038,20.9143799 C21.8340331,20.819287 21.9382243,20.7320801 22.0433757,20.6434815 C22.0976319,20.5980224 22.1504476,20.5483886 22.2066243,20.5047852 C22.3415446,20.3985596 22.4807861,20.2997558 22.6233887,20.2037354 C22.6550781,20.1819336 22.6834066,20.1582763 22.7160563,20.1383301 C22.8917887,20.0228271 23.073763,19.9156739 23.2614991,19.8168701 C23.3090331,19.7913574 23.3599284,19.7714112 23.4084228,19.7468261 C23.5491049,19.6763183 23.6902669,19.6081299 23.8371908,19.5473633 C23.9096924,19.516748 23.9845947,19.4921631 24.0570964,19.464331 C24.1843343,19.4160888 24.3110921,19.3697021 24.4397705,19.3288818 C24.5242757,19.3019776 24.6107015,19.2811036 24.6966471,19.2574463 C24.8195638,19.2240479 24.9434408,19.1920411 25.0692383,19.1623536 C25.1604654,19.1424073 25.2531332,19.1270996 25.3462809,19.1113281 C25.420223,19.097876 25.4960856,19.0881348 25.5705078,19.0779297 L25.5705078,32.3 L19.6666667,32.3 Z M29.261849,1.9 L29.5028809,1.9 C33.8385742,1.96401361 37.3095296,5.39477545 37.2763997,9.58395993 C37.2432699,13.7731445 33.7190186,17.152417 29.3823649,17.152417 C25.0461914,17.152417 21.52146,13.7731445 21.48833,9.58395993 C21.4552002,5.39477545 24.9261555,1.96401361 29.261849,1.9 Z M27.5333333,19 L31.4666667,19 L31.4666667,22.8 L27.5333333,22.8 L27.5333333,19 Z M33.4333333,23.75 L33.4333333,19.0760742 C33.5082357,19.0862792 33.5836181,19.0960205 33.6575603,19.1094727 C33.7511882,19.1252442 33.8433757,19.1405518 33.9346029,19.160498 C34.0608806,19.1869385 34.1847575,19.2194092 34.3076741,19.2555909 C34.3931397,19.279248 34.4795655,19.3001221 34.5640707,19.3270263 C34.6927491,19.3678467 34.819987,19.4142334 34.9467448,19.4624756 C35.0192464,19.4903076 35.0941488,19.5148926 35.1671306,19.5455078 C35.3135742,19.6062744 35.4552165,19.674463 35.5958984,19.7449708 C35.6439128,19.7695557 35.6938477,19.789502 35.7423421,19.8150146 C35.9305582,19.9138183 36.1120524,20.0209716 36.2877848,20.1360107 C36.3204345,20.155957 36.348763,20.1800781 36.3804524,20.2018799 C36.523055,20.2969727 36.6627768,20.3916016 36.7972169,20.5029297 C36.8533936,20.5465333 36.9066894,20.5980224 36.9604654,20.641626 C37.0656168,20.7297607 37.169808,20.8183594 37.2682373,20.9125244 C37.327295,20.9681885 37.3825114,21.0270996 37.4396484,21.085083 C37.5279948,21.1755371 37.6163411,21.266919 37.6998861,21.3615479 C37.7560629,21.4255615 37.8093587,21.4918945 37.8621745,21.5582276 C37.9399576,21.6533203 38.0148601,21.7484131 38.0864014,21.8435058 C38.138737,21.9144776 38.1848307,21.9868409 38.2357258,22.0601318 C38.302946,22.1598633 38.366805,22.2614502 38.4325846,22.3639648 C38.477718,22.4409667 38.520931,22.5179688 38.5631836,22.5958984 C38.6203207,22.7011963 38.6736165,22.8092773 38.7245117,22.9178223 C38.7619628,22.9985352 38.7994141,23.0783203 38.8339844,23.1599609 C38.8810383,23.2731445 38.923291,23.3881836 38.9636231,23.5041505 C38.9929118,23.5857911 39.023641,23.6674317 39.0490885,23.75 C39.0865398,23.8724609 39.1177491,23.9967773 39.1475179,24.1215576 C39.1672038,24.2022705 39.1888103,24.2820557 39.2056153,24.3636963 C39.2339437,24.5023926 39.2536295,24.6485107 39.2733155,24.787207 C39.2824382,24.8577148 39.2958821,24.9259034 39.3030843,24.9973388 C39.3246908,25.2111817 39.3371745,25.4287354 39.3371745,25.6481445 L39.3371745,32.2981445 L33.4333333,32.2981445 L33.4333333,23.75 Z M47.2,24.7 L45.2333333,24.7 L45.2333333,22.8 L47.2,22.8 L47.2,24.7 Z M47.2,9.5 L45.2333333,9.5 L45.2333333,7.6 L47.2,7.6 L47.2,9.5 Z M4.91666667,1.9 L23.6110433,1.9 C23.1558675,2.22702634 22.7304606,2.59162601 22.3391439,2.98869632 C20.6192708,4.74860837 19.6661866,7.08000491 19.6762695,9.5 L17.7,9.5 L17.7,5.7 C17.7,5.17536618 17.2597087,4.75 16.7166667,4.75 L12.7833333,4.75 C12.2402913,4.75 11.8,5.17536618 11.8,5.7 L11.8,9.5 L7.86666667,9.5 C7.32362464,9.5 6.88333333,9.92536618 6.88333333,10.45 C6.88333333,10.9746338 7.32362464,11.4 7.86666667,11.4 L19.6666667,11.4 C19.7334066,11.3935058 19.7991862,11.3805176 19.8635253,11.3610352 C20.3777588,13.8533935 21.9041341,16.0433105 24.1012695,17.4409424 C20.6581624,18.4020752 18.152295,21.2720214 17.7523356,24.7134521 C17.7350504,24.7078857 17.7177653,24.7037109 17.7,24.7 L15.7333333,24.7 L15.7333333,21.85 C15.7333333,21.3253662 15.293042,20.9 14.75,20.9 L10.8166667,20.9 C10.2736246,20.9 9.83333333,21.3253662 9.83333333,21.85 L9.83333333,24.7 L7.86666667,24.7 C7.32362464,24.7 6.88333333,25.1253662 6.88333333,25.65 C6.88333333,26.1746338 7.32362464,26.6 7.86666667,26.6 L17.7,26.6 L17.7,32.3 L15.7333333,32.3 L15.7333333,29.45 C15.7333333,28.9253662 15.293042,28.5 14.75,28.5 L10.8166667,28.5 C10.2736246,28.5 9.83333333,28.9253662 9.83333333,29.45 L9.83333333,32.3 L4.91666667,32.3 L4.91666667,1.9 Z M13.7666667,8.55 L13.7666667,6.65 L15.7333333,6.65 L15.7333333,8.55 L13.7666667,8.55 Z M13.7666667,24.7 L11.8,24.7 L11.8,22.8 L13.7666667,22.8 L13.7666667,24.7 Z M13.7666667,32.3 L11.8,32.3 L11.8,30.4 L13.7666667,30.4 L13.7666667,32.3 Z M57.0333333,55.1 L1.96666667,55.1 L1.96666667,37.05 C1.96666667,35.4760987 3.28754072,34.2 4.91666667,34.2 L54.0833333,34.2 C55.7124593,34.2 57.0333333,35.4760987 57.0333333,37.05 L57.0333333,55.1 Z" id="Shape"></path>
                <path d="M47,17 L47,14 C47,13.4477539 46.5522461,13 46,13 L42,13 C41.4477539,13 41,13.4477539 41,14 L41,17 L40,17 C39.4477539,17 39,17.4477539 39,18 C39,18.5522461 39.4477539,19 40,19 L52,19 C52.5522461,19 53,18.5522461 53,18 C53,17.4477539 52.5522461,17 52,17 L47,17 Z M43,17 L43,15 L45,15 L45,17 L43,17 Z" id="Shape"></path>
                <path d="M8,19 L18,19 C18.5522461,19 19,18.5522461 19,18 C19,17.4477539 18.5522461,17 18,17 L13,17 L13,14 C13,13.4477539 12.5522461,13 12,13 L8,13 C7.44775388,13 7,13.4477539 7,14 L7,18 C7,18.5522461 7.44775388,19 8,19 Z M9,15 L11,15 L11,17 L9,17 L9,15 Z" id="Shape"></path>
                <path d="M36,42 L33,42 L33,39 C33,38.4477539 32.5522461,38 32,38 L28,38 C27.4477539,38 27,38.4477539 27,39 L27,42 L24,42 C23.4477539,42 23,42.4477539 23,43 L23,47 C23,47.5522461 23.4477539,48 24,48 L27,48 L27,51 C27,51.5522461 27.4477539,52 28,52 L32,52 C32.5522461,52 33,51.5522461 33,51 L33,48 L36,48 C36.5522461,48 37,47.5522461 37,47 L37,43 C37,42.4477539 36.5522461,42 36,42 Z M35,46 L32,46 C31.4477539,46 31,46.4477539 31,47 L31,50 L29,50 L29,47 C29,46.4477539 28.5522461,46 28,46 L25,46 L25,44 L28,44 C28.5522461,44 29,43.5522461 29,43 L29,40 L31,40 L31,43 C31,43.5522461 31.4477539,44 32,44 L35,44 L35,46 Z" id="Shape"></path>
            </g>
        </g>
    </g>
</svg>