<?xml version="1.0" encoding="UTF-8"?>
<svg width="167px" height="168px" viewBox="0 0 167 168" version="1.1" xmlns="http://www.w3.org/2000/svg" xmlns:xlink="http://www.w3.org/1999/xlink">
    <title>Group 88</title>
    <defs>
        <polygon id="path-1" points="0.337318627 0.1614 4.95757399 0.1614 4.95757399 0.5 0.337318627 0.5"></polygon>
    </defs>
    <g id="Home-Page-Option-&quot;2&quot;" stroke="none" stroke-width="1" fill="none" fill-rule="evenodd">
        <g id="Home-Page--Copy-5" transform="translate(-262.000000, -2365.000000)">
            <g id="Group-88" transform="translate(262.000000, 2365.000000)">
                <g id="Group-3" transform="translate(81.000000, 167.000000)">
                    <mask id="mask-2" fill="white">
                        <use xlink:href="#path-1"></use>
                    </mask>
                    <g id="Clip-2"></g>
                    <path d="M0.346166667,0.4999 C0.335611111,0.4434 0.3345,0.3869 0.342833333,0.3304 C1.8795,0.3279 3.41616667,0.3254 4.95283333,0.3229 C4.96005556,0.3824 4.95894444,0.4409 4.95005556,0.4999 L0.346166667,0.4999 Z" id="Fill-1" fill="#F5F4F3" mask="url(#mask-2)"></path>
                </g>
                <path d="M83.5034503,155.781359 C122.88855,155.909407 155.477192,124.147823 155.836567,84.2776892 C156.20447,43.5468471 123.498269,12.1583993 85.2783989,11.2776041 C45.103892,10.3517648 11.8135546,42.4103961 11.2361176,82.4418369 C10.6483258,123.20494 43.6554267,155.905146 83.5034503,155.781359 M86.0732884,166.990869 C84.3884882,166.993913 82.7036879,166.996956 81.0188876,167 C72.7818833,166.655473 64.6545189,165.484326 56.9157672,162.630112 C26.6490553,151.464648 7.63079123,130.196518 1.4946098,98.4653699 C-6.92634595,54.9235312 21.068992,12.2448353 64.506505,2.3692161 C93.3064783,-4.17922517 118.989023,2.9030498 140.77265,22.9209007 C154.45754,35.497341 162.883978,51.2238262 165.794309,69.5616531 C170.058693,96.43108 163.013719,120.203419 144.617966,140.319271 C131.749892,154.391298 115.627341,162.754896 96.8338385,165.946941 C93.2778501,166.551385 89.6786148,166.828345 86.0732884,166.990869" id="Fill-4" fill="#194481"></path>
                <path d="M125.432638,120.717551 C124.906173,120.83664 124.661874,121.234825 124.437729,121.592091 C124.138462,122.069668 124.647826,122.274256 124.898844,122.505106 C127.80234,125.180635 130.716831,127.843339 133.639871,130.497494 C134.031972,130.85415 134.334903,131.433715 135.02627,130.669715 C135.739013,129.881896 135.183843,129.57654 134.728224,129.160035 C131.888246,126.562066 129.04277,123.968982 126.196684,121.37651 C125.944445,121.146271 125.679991,120.930079 125.432638,120.717551 M112.068858,35.489634 C112.391943,35.3839808 112.482334,35.0920605 112.628914,34.8392257 C114.680417,31.2995388 116.727034,27.7561876 118.801745,24.2299363 C119.117502,23.6931204 119.105287,23.4030322 118.525687,23.076912 C117.947919,22.7520132 117.662089,22.7294168 117.287701,23.3932608 C115.274675,26.9561548 113.196299,30.4817953 111.155178,34.0282001 C111.007988,34.2834777 110.602451,34.5845588 111.045854,34.9070147 C111.362222,35.1372532 111.729282,35.2997026 112.068858,35.489634 M130.199527,114.349657 C129.945456,114.67822 129.694438,114.970141 129.479455,115.2871 C129.113617,115.825748 129.637028,115.974151 129.925301,116.173243 C132.082463,117.660938 134.253673,119.127868 136.415111,120.608845 C137.351998,121.250092 138.826955,121.755151 139.063315,122.600377 C139.336319,123.576905 137.938927,124.505187 137.380093,125.524466 C137.356274,125.567826 137.325736,125.608133 137.292145,125.644165 C136.805379,126.174874 136.947683,126.506491 137.521786,126.922386 C138.159407,127.384084 138.353015,127.003 138.642509,126.576723 C140.309852,124.123492 141.986355,121.675148 143.659805,119.225582 C143.962736,118.781594 144.356669,118.418831 143.59873,117.925376 C142.932404,117.49177 142.650849,117.718955 142.314327,118.252107 C141.891689,118.921447 141.384768,119.540709 141.007326,120.232646 C140.554151,121.061993 140.136399,121.182303 139.316775,120.597241 C136.661853,118.70037 133.947078,116.887776 131.254289,115.045258 C130.931203,114.82418 130.600178,114.613485 130.199527,114.349657 M82.636294,14.4994615 C82.6014813,13.8484425 82.4866607,13.442319 81.6878021,13.5278187 C78.6853642,13.8496639 75.6768189,14.1116594 72.6688843,14.3779298 C72.1131035,14.4267868 71.7594803,14.4799187 71.8394883,15.2298731 C71.9207178,15.9908203 72.2273134,16.116627 72.8979149,16.0207452 C73.7285323,15.9028777 74.5915195,15.9670025 75.4062575,15.7905067 C76.3669643,15.5834754 76.5172083,15.9480704 76.5801154,16.8128387 C76.8213609,20.120455 77.1529972,23.4213536 77.4553175,26.7246949 C77.5145601,27.3708283 77.4864656,28.0047473 78.525959,27.8679479 C79.5746135,27.7299269 79.1794595,27.0379902 79.1385394,26.5536956 C78.9223345,23.988705 78.6719278,21.4261574 78.3934266,18.8672739 C78.0300315,15.5199613 78.0147628,15.5217934 81.3836495,15.2567444 C81.5809212,15.2414766 81.7788036,15.2274302 81.976686,15.215216 C82.46162,15.1846804 82.701644,14.9471134 82.636294,14.4994615 M43.8232496,44.0389917 C43.5997158,43.7739427 43.4171021,43.5412614 43.2179982,43.3238479 C42.2487409,42.2648733 41.3045243,41.1802487 40.2912931,40.165856 C39.7416198,39.6156045 39.7202436,39.2681093 40.330381,38.742897 C41.6056231,37.6454475 42.8033002,36.458834 44.0589984,35.336956 C44.5054553,34.9375503 44.8212121,34.6926548 44.2574915,34.0587357 C43.6559046,33.3826775 43.3377048,33.6788728 42.8759792,34.1338533 C42.2426334,34.7573903 41.5634815,35.3351239 40.9057057,35.9348431 C38.3698795,38.2451667 38.3894234,38.2286775 36.1779044,35.6184942 C35.7198433,35.0774034 35.6911381,34.802583 36.237147,34.3268383 C37.7298154,33.0260217 39.1436974,31.6342089 40.6418625,30.3401102 C41.1921466,29.8649762 41.0620573,29.5803844 40.6418625,29.1638788 C40.2967898,28.8212693 40.0524906,28.5977487 39.5779393,29.0441792 C37.6681298,30.8415047 35.7247293,32.6034089 33.7856039,34.3689774 C33.4063293,34.7140297 33.2487563,34.9619788 33.6946024,35.4395556 C36.5309168,38.4827337 39.3299755,41.5601116 42.1449137,44.6228324 C42.3263059,44.8200924 42.474107,45.2146124 42.8313946,44.9581133 C43.1856286,44.7040571 43.4787877,44.3645012 43.8232496,44.0389917 M33.3281536,54.3032288 C35.9421556,54.3209395 38.4107996,51.9654232 39.0728506,48.9210237 C39.4741121,47.0754519 38.9592514,45.6066895 37.4097834,44.5184007 C35.0223689,42.8419961 32.6196857,41.1869665 30.2475399,39.4897978 C29.7045848,39.1007742 29.3949355,39.0299316 28.9454249,39.6467508 C28.4366717,40.3447946 28.8641954,40.5719795 29.330807,40.897489 C31.5624807,42.4523619 33.7935436,44.0072347 36.0087272,45.5847039 C37.8220384,46.8751384 38.0022091,48.7084959 36.54985,50.7366706 C35.1353573,52.712324 33.4185443,53.1147832 31.619891,51.8646557 C29.3869958,50.3128364 27.1522684,48.7628493 24.9523536,47.1646159 C24.3525989,46.7285675 24.0136337,46.6729927 23.5439683,47.3374474 C23.0205572,48.0776304 23.5891637,48.2755011 24.0044724,48.5674214 C26.3515775,50.2163439 28.7072331,51.85122 31.054949,53.4989211 C31.7566986,53.9917657 32.4822674,54.3881178 33.3281536,54.3032288 M91.1782175,28.395603 C94.5831384,28.3155998 96.5265389,26.6428595 96.5961642,23.8012164 C96.659682,21.1922546 97.2056909,18.5942857 97.5733613,15.995706 C97.6680272,15.3269763 97.6729132,14.8958136 96.8135906,14.780389 C95.9457175,14.6649645 95.9542679,15.1761304 95.8876964,15.7355427 C95.5817116,18.2932046 95.2494646,20.8472023 94.9636345,23.4066965 C94.688187,25.8751945 93.2327742,27.0117296 90.677404,26.6984343 C88.1049328,26.3833069 86.9774918,24.9682871 87.3060743,22.4875749 C87.6505362,19.8853309 87.9510243,17.2763691 88.3419031,14.680843 C88.4524485,13.9455457 88.2356329,13.747675 87.5601455,13.6322504 C86.8345767,13.5088866 86.724642,13.8539389 86.6562382,14.4249546 C86.2830711,17.5224861 85.8586012,20.6151318 85.5178037,23.7163275 C85.3852714,24.9237052 85.922119,25.9423728 86.824194,26.7381306 C88.1067651,27.8685586 89.6531794,28.3131569 91.1782175,28.395603 M150.508735,64.2944776 C150.252831,62.2351567 149.140048,59.9437651 148.412037,57.5406133 C148.234309,56.9543297 147.812893,57.1833468 147.456216,57.3006035 C143.609113,58.5672202 139.76995,59.8582654 135.914297,61.0967894 C135.224152,61.3184779 135.088566,61.5505485 135.324315,62.2540887 C135.55701,62.9478576 135.846504,62.8983899 136.394345,62.6944121 C137.505296,62.2803494 138.663885,61.9914826 139.759568,61.5444414 C140.755698,61.1377072 141.303539,61.176182 141.61441,62.4012703 C141.962536,63.7772045 142.315549,65.1855065 143.090588,66.4179234 C144.196042,68.1755526 146.128449,68.8778714 148.117656,68.2549452 C149.772173,67.7370614 150.530722,66.6353369 150.508735,64.2944776 M27.4948981,81.8176379 C27.2304441,80.7702668 27.8979918,80.0135946 26.7809335,79.4480753 C24.318397,78.2022227 24.3544311,78.1301587 24.7740151,75.4302008 C24.8650166,74.8439173 25.0207573,74.2582444 25.0329723,73.6701287 C25.0635097,72.1860985 25.6223443,71.2602591 27.2579278,71.3427052 C28.7548715,71.4190442 29.2190401,70.6593184 28.9802375,69.2259773 C24.4332176,70.1328847 19.9362791,71.0324635 15.4375083,71.9253245 C14.9147079,72.0291455 14.6545291,72.2325126 14.4975669,72.8389497 C14.1292857,74.2643515 14.2978522,75.0869806 15.8467095,75.8106744 C19.6840401,77.6037249 23.3906706,79.6764816 27.4948981,81.8176379 M137.946867,111.475036 C138.684651,110.556525 138.503869,109.959248 137.63905,109.220287 C136.527488,108.27124 136.164704,106.912406 136.509777,105.430819 C137.071665,103.017895 138.783592,101.547301 141.076951,101.516154 C143.949911,101.477069 146.850354,103.411805 147.418349,105.750221 C147.535002,106.230851 147.592413,106.702932 147.519733,107.213487 C147.127022,109.962913 145.937285,111.148915 142.979432,111.479311 C142.179352,111.569085 142.170801,112.153537 142.052927,112.600578 C141.891079,113.213733 142.525646,113.132508 142.850564,113.166097 C144.674869,113.354196 146.302512,112.931584 147.477592,111.413354 C150.705396,107.24158 149.578565,102.729029 144.778696,100.615354 C144.149014,100.338091 143.485742,100.11396 142.816362,99.9533424 C139.332655,99.1191098 136.603832,100.522526 135.280341,103.797775 C134.03075,106.891031 134.983517,109.69481 137.946867,111.475036 M59.3997702,32.5466127 C55.7139052,29.5962629 52.1001084,26.6856094 48.4631032,23.8036593 C47.5023964,23.0427121 46.9979185,24.1871864 46.2821216,24.4406319 C45.6756487,24.6549919 45.5638818,25.0403512 45.7220656,25.7139665 C46.6815509,29.8020729 47.5634712,33.9078898 48.4960836,38.0021033 C48.5870851,38.3996768 48.3543901,39.2406273 49.128208,39.0134424 C49.6369612,38.8644287 50.4272693,38.6744972 50.1744195,37.584987 C49.530691,34.8129651 49.6039808,34.7958651 52.086672,33.2709172 C52.5496191,32.9863254 53.0626475,32.7597512 53.4675735,32.4085918 C54.6212767,31.4106883 55.6442799,31.3288529 56.6459068,32.6247839 C57.4655308,33.6855907 58.3804316,33.7546011 59.3997702,32.5466127 M129.211947,134.604532 C129.244317,131.328062 127.059671,127.939221 124.432232,126.546798 C122.167578,125.346749 119.593885,125.737604 117.42573,127.610658 C115.396214,129.364012 114.685303,131.781211 115.569666,134.167873 C115.716246,134.562393 115.676547,135.428994 116.481513,135.119363 C117.063556,134.895231 117.521617,134.518422 117.141121,133.628614 C116.008183,130.981178 118.177561,128.565201 120.178982,127.881814 C122.501657,127.08911 125.014275,128.371605 126.623597,131.168056 C127.833489,133.268905 127.680802,135.328226 126.197294,136.934399 C124.519569,138.750046 122.840012,139.077387 120.49596,137.87062 C119.743519,137.483429 119.465018,137.99887 119.135824,138.320715 C118.539123,138.904556 119.326989,139.054791 119.590221,139.258158 C121.271611,140.557142 123.11607,140.79532 125.01,139.801692 C127.362602,138.567443 129.081247,136.825692 129.211947,134.604532 M59.0058377,23.3047076 C59.0198849,20.8594166 60.122896,19.2593511 62.0772901,18.5112288 C64.0713827,17.7478388 65.6874223,18.0519734 67.009692,19.6190605 C67.5947888,20.3122186 68.1536233,20.1900762 68.6629873,19.7931134 C69.2627419,19.3265294 68.5921405,18.9155202 68.3637207,18.5869571 C66.8301321,16.3847295 64.5355513,15.874785 61.4671527,16.9960523 C58.6198448,18.0367056 56.9689926,20.3323721 57.2248961,23.0793548 C57.4252215,25.2260076 58.059178,27.2499073 59.4516838,28.9605117 C61.0933748,30.9770828 63.6731749,31.5468771 66.4691799,30.5263773 C69.0917325,29.5693916 70.6247103,27.5106813 70.5398163,24.9481336 C70.5263798,24.535903 70.8928287,23.7187703 69.9522766,23.7853379 C69.2841181,23.8323628 68.8498762,24.0949689 68.8730846,24.9988227 C68.9237767,27.0306617 67.754194,28.3137676 65.9109561,28.9818866 C64.080544,29.6457306 62.41198,29.3867887 61.0048163,27.9387905 C59.6550629,26.550642 59.1591354,24.8272127 59.0058377,23.3047076 M112.230095,138.525914 C112.370567,139.214187 111.837995,139.227012 111.527124,139.372361 C109.693047,140.233465 107.837595,141.051209 106.003518,141.914145 C105.577216,142.115069 104.906614,142.159651 105.326809,143.027473 C105.677378,143.751166 105.999853,143.796359 106.654575,143.469628 C107.893173,142.852809 109.169636,142.309886 110.431442,141.73887 C113.256763,140.459429 113.226225,140.472864 114.439171,143.381075 C114.725001,144.067515 114.616288,144.294089 113.963398,144.576849 C111.921057,145.460549 109.914138,146.425474 107.887676,147.345207 C107.35266,147.58827 106.940405,147.759269 107.298915,148.530599 C107.648263,149.280553 108.007382,149.115661 108.56072,148.85794 C111.069674,147.689038 113.585956,146.534181 116.116896,145.414135 C116.794827,145.114276 116.939574,144.811973 116.610381,144.106601 C114.914333,140.478971 113.253098,136.835463 111.623622,133.177909 C111.302369,132.457269 110.961571,132.388869 110.294634,132.703996 C107.79301,133.887556 105.273063,135.033252 102.751895,136.175284 C102.221155,136.415293 101.799738,136.573468 102.15214,137.33014 C102.476447,138.02513 102.80503,137.986656 103.398677,137.703896 C105.405595,136.748132 107.436333,135.840003 109.464017,134.927599 C109.78527,134.78286 110.200579,134.334598 110.477859,134.861642 C111.121587,136.084898 111.677368,137.354569 112.230095,138.525914 M30.128444,58.3815638 C28.7047901,58.7595945 27.6243767,59.0625077 26.5360235,59.3330531 C23.6581782,60.0494183 20.7833867,60.7804406 17.892105,61.4387882 C17.1219516,61.6140625 16.8587192,62.0867536 16.665112,62.7261691 C16.507539,63.2477172 16.9484992,63.3087884 17.2300541,63.4205487 C21.0850963,64.9509931 24.9492998,66.4570089 28.8031206,67.9892854 C29.2575172,68.1706669 29.5244141,68.1120385 29.7082493,67.6527831 C29.883534,67.2155133 30.0368318,66.8008398 29.4279159,66.5736549 C29.1048302,66.4533447 28.7805229,66.3354772 28.4598801,66.2090599 C25.7231177,65.1274888 22.9875768,64.0440857 20.0150656,62.8678543 C20.4120519,62.7163978 20.523208,62.6614337 20.6404717,62.6315088 C24.2817521,61.7087229 27.9199788,60.7743335 31.5685882,59.8784189 C32.4315753,59.6671126 33.2817367,59.411835 33.298369,58.3949994 C33.3116634,57.5387812 32.3686682,57.6511522 31.8422033,57.4367922 C28.4580479,56.0596366 25.0519055,54.7356129 21.6390449,53.4305213 C21.1889235,53.2583005 20.6416932,52.6249922 20.208062,53.6314456 C19.7414504,54.7166809 20.6306997,54.6598846 21.1192982,54.8559232 C24.0001972,56.0120011 26.8994186,57.1241077 30.128444,58.3815638 M122.383172,29.6231342 C122.480281,29.6475627 122.57739,29.6719912 122.674499,29.6964197 C122.629304,30.3205674 122.581055,30.9441044 122.539524,31.568252 C122.309272,35.0261036 122.106503,38.4863979 121.830445,41.9399745 C121.769981,42.6966467 122.213995,42.984292 122.662895,43.3690406 C123.078814,43.7256964 123.272422,43.4136226 123.49168,43.1449093 C126.156985,39.8849285 128.811296,36.615787 131.492481,33.3680204 C131.957871,32.8043332 131.502253,32.6119589 131.204818,32.3139314 C130.83837,31.9475042 130.559868,31.9994147 130.25877,32.4226382 C129.915529,32.9063221 129.509992,33.3460348 129.13255,33.8059009 C127.42612,35.8847647 125.719689,37.9648499 123.726207,40.3942623 C123.833699,38.6048761 123.906989,37.2906238 123.993104,35.9763715 C124.174497,33.2092353 124.314358,30.4378241 124.575147,27.6780164 C124.655766,26.8205767 124.164114,26.4724709 123.630931,26.1829934 C123.077593,25.8819123 122.922463,26.554917 122.681217,26.8462266 C120.188143,29.8631441 117.719499,32.9020471 115.249634,35.9378966 C114.934488,36.3256988 114.407412,36.6084584 115.114659,37.2326061 C115.897027,37.9221 116.114453,37.2863488 116.46258,36.8625146 C118.440793,34.4532557 120.410456,32.0372789 122.383172,29.6231342 M27.5694093,104.020685 C25.6461634,104.158705 23.5372501,105.074773 21.7007305,106.578347 C19.7200742,108.200398 19.1716224,110.314072 19.9778099,112.72272 C20.5433627,114.413171 21.4985728,115.931401 22.3072034,117.513756 C22.686478,118.256382 23.1170554,117.979729 23.6313053,117.734223 C25.9918469,116.606849 28.4159063,115.598563 30.7086548,114.347825 C32.1891083,113.540464 34.7267668,113.495882 34.9075483,111.771231 C35.0663428,110.251169 33.6964347,108.517357 32.849327,106.961263 C31.8385388,105.10592 30.2683054,103.994424 27.5694093,104.020685 M107.46626,26.0309261 C107.792399,26.0309261 108.034255,26.0248189 108.275501,26.0321475 C110.701393,26.1048222 112.164745,25.0800474 112.680217,22.9456089 C113.080867,21.28264 112.142147,19.7851741 109.985596,18.8953667 C108.023873,18.0861733 106.004739,17.4162222 104.028358,16.6412286 C103.424328,16.4042723 103.05788,16.3664082 102.790372,17.0876591 C101.378322,20.8881201 99.9497823,24.6836953 98.476047,28.4603385 C98.2060963,29.152886 98.3538974,29.373353 99.0049549,29.6438984 C99.6975433,29.9309331 99.8459551,29.60237 100.034066,29.0918148 C100.561752,27.6541986 101.093714,26.2178039 101.669649,24.7997306 C101.786302,24.5120852 101.742328,24.077869 102.187563,23.9691623 C102.954052,23.7816737 105.76044,25.4904459 105.968094,26.2831501 C106.432263,28.0536043 106.977661,29.80818 107.323345,31.6018412 C107.574362,32.9032685 108.273669,33.3869525 109.582502,33.4364202 C108.866094,30.930058 108.17717,28.5189669 107.46626,26.0309261 M33.9633316,130.561619 C36.3599073,130.514594 38.1035933,129.434855 39.682988,128.013728 C42.6451165,125.349191 42.9743097,121.950579 40.5795662,118.909233 C38.1616143,115.837962 34.8928903,115.42451 31.5386615,117.775141 C30.4350396,118.548302 29.4413524,119.444828 28.7096761,120.588691 C27.4252728,122.595491 27.2652568,124.666415 28.4873638,126.759326 C29.7546662,128.928575 31.5050704,130.404055 33.9633316,130.561619 M39.5602276,135.292194 C39.5296902,138.48805 42.9523228,141.735206 46.3267062,141.712123 C49.8220179,141.688181 53.6587377,137.534118 53.7442424,133.681136 C53.8150892,130.471233 50.4419272,127.216749 47.0315096,127.203281 C43.4580222,127.189878 39.598094,131.368369 39.5602276,135.292194 M67.3425498,141.558099 C67.3608722,140.494239 67.1526071,139.477404 66.6756128,138.534464 C65.4431231,136.098945 63.161368,135.171273 60.7366979,134.477504 C57.4508729,133.53884 57.4484299,133.548611 56.2006714,136.720649 C54.7867895,140.317743 54.7867895,140.317743 58.4647148,141.559321 C58.5581593,141.591078 58.6632079,141.602071 58.7456589,141.650928 C59.2116598,141.928802 59.3838908,141.743145 59.6110891,141.283279 C60.287798,139.912841 58.985683,139.998341 58.4463924,139.847495 C57.1442773,139.4829 56.9989193,138.922877 57.5235519,137.737485 C58.5209036,135.483347 58.4549428,135.452811 60.8655657,136.224751 C61.0536762,136.285212 61.2320146,136.375597 61.4201251,136.434226 C66.772111,138.113073 66.4001654,143.592992 63.3903986,146.475553 C62.0003358,147.806294 60.3122279,147.963247 58.5520518,147.255432 C56.7515663,146.531738 55.5526677,145.353675 55.6613808,143.240611 C55.6790925,142.901055 55.7493286,142.530353 55.2625623,142.417982 C54.9370335,142.343475 54.4240051,142.063158 54.3330036,142.168201 C53.9317421,142.629899 53.9335743,143.27359 53.9567828,143.854987 C54.0624422,146.49876 55.6906967,147.949812 57.9852775,148.819466 C60.440485,149.748969 62.7924761,149.662248 64.727937,147.697588 C66.3818429,146.019351 67.2161249,143.920334 67.3425498,141.558099 M139.470684,49.6636495 C140.832652,48.2425226 141.67976,46.7383389 141.267505,44.7901675 C140.546211,41.3744551 137.416127,38.8448859 134.281768,39.1166527 C130.714998,39.4262837 127.199532,42.8389426 127.077993,46.1361768 C126.934467,50.0288553 129.587557,52.2958184 132.065363,54.6623275 C132.417153,54.9976084 132.674278,54.8015698 132.966216,54.5835456 C134.433233,53.4854854 135.900861,52.3862038 137.380704,51.3058542 C137.759978,51.0298123 137.913887,50.8038489 137.568203,50.3678005 C136.83042,49.4358539 136.11279,48.485586 135.437303,47.5078361 C135.049478,46.945981 134.748379,47.1798837 134.364829,47.4736362 C133.97334,47.7722744 133.680791,48.0403769 134.099765,48.5436037 C134.47965,48.9991948 134.819837,49.4889859 135.175903,49.9647305 C135.37806,50.2358867 135.590601,50.4191003 135.243085,50.8282774 C133.489627,52.892484 132.37318,52.9358446 130.688736,50.9204949 C130.656977,50.8826307 130.623386,50.8465987 130.591017,50.8081239 C127.441999,47.0162129 128.71602,42.6496218 133.41817,41.1246739 C135.240642,40.5335047 137.069833,41.0794812 138.358511,42.5995435 C139.813924,44.3168657 140.053948,45.9022741 138.894748,47.7576173 C138.261402,48.7707885 139.110342,49.0254554 139.470684,49.6636495 M17.6490273,95.1085639 C20.9782154,93.5530803 23.8798798,92.2089031 26.7687185,90.8372439 C27.3953461,90.5392164 28.1111429,90.3920348 27.99449,89.3031353 C27.8778371,88.2056858 27.2200614,88.118354 26.4370823,87.9241475 C23.2373728,87.1302219 20.0462137,86.3033178 16.8513902,85.4880172 C20.0272805,84.9939512 23.1726335,84.6733274 26.3210401,84.3801856 C26.9592719,84.3209465 27.4606962,84.3191144 27.3770237,83.4012142 C27.3019017,82.5846922 26.8884252,82.576753 26.287449,82.6372135 C22.2943776,83.0378406 18.2994741,83.4244213 14.3070135,83.8268805 C13.9882029,83.8592483 13.6052638,83.7774128 13.4299791,84.2104077 C13.061698,85.1179257 13.8214687,86.5359991 14.8340891,86.7961624 C18.3611596,87.7012376 21.8888409,88.6050914 25.6119615,89.5602451 C25.0183144,89.874151 24.5999519,90.115993 24.1638777,90.3224137 C21.2151857,91.7191121 18.2811516,93.1481782 15.3031437,94.4801412 C14.060882,95.0358891 14.688731,95.9653928 14.6594151,96.7635935 C14.635596,97.4103375 15.0991538,97.3920161 15.5895846,97.3419378 C19.483104,96.9443642 23.3796771,96.5761049 27.2713642,96.16021 C27.8479105,96.0985281 28.7096761,96.3647985 28.5643181,95.1329923 C28.4104095,93.82729 27.6060542,94.3225775 26.9464462,94.3683809 C23.9849285,94.5754123 21.0490622,95.1055103 17.6490273,95.1085639 M30.2218885,83.3883893 C30.2267745,113.106858 53.9622795,136.144137 82.2148778,136.804317 C111.76043,137.495643 136.760183,113.941091 136.769347,83.5697708 C136.777895,53.8861125 113.126673,30.8506654 84.7103947,30.2314034 C54.7452586,29.579163 30.3458704,53.5416709 30.2218885,83.3883893 M140.298858,85.2431217 C140.276871,85.053801 140.254274,84.8638695 140.231676,84.6745488 C142.038269,83.0940261 143.844251,81.5135033 145.69604,79.8926736 C145.856666,80.30124 145.951943,80.574839 146.070428,80.8386666 C146.910818,82.7202703 148.53724,83.6119099 150.486748,83.2662469 C152.199896,82.962723 153.054333,81.9275661 153.11724,79.6984672 C153.185644,77.2751619 152.781329,74.8713993 152.549244,72.4609189 C152.477787,71.7140181 152.033773,71.7818071 151.520745,71.8269998 C147.580198,72.1751057 143.639651,72.515883 139.698493,72.857271 C139.137215,72.906128 138.672436,72.929335 138.707859,73.7623463 C138.750612,74.7663568 139.363192,74.5519969 139.931188,74.5049721 C141.409198,74.3834404 142.891484,74.2869479 144.360944,74.095795 C145.087124,74.0011347 145.346081,74.1843483 145.307604,74.9196455 C145.281342,75.4082152 145.322872,75.9206026 145.446244,76.3932937 C145.731463,77.4913539 145.368679,78.2168798 144.461107,78.8984344 C143.079594,79.9360342 141.849548,81.1739475 140.485136,82.235365 C139.719258,82.8308092 139.419381,83.4683926 139.710708,84.3832392 C139.705211,84.6794345 139.699714,84.9750191 139.694218,85.2706038 C139.61482,85.9619298 139.237989,86.6214988 140.270153,87.1039613 C142.638634,88.2099608 142.607486,88.2771391 142.30822,90.8445725 C142.279514,91.0913001 142.229433,91.3374171 142.230044,91.583534 C142.234319,93.83584 141.627846,95.5079695 138.890473,95.392545 C137.838765,95.347963 138.130702,96.2951773 138.132535,96.8332146 C138.135588,97.6485152 138.81474,97.1996419 139.131108,97.1349064 C143.301296,96.2835738 147.456216,95.3540701 151.632511,94.535716 C152.538862,94.3579988 152.612762,93.7802652 152.637803,93.1671103 C152.664065,92.5044878 153.213738,91.7068978 152.216387,91.2116104 C148.236752,89.2365677 144.269943,87.2352644 140.298858,85.2431217 M83.4693544,156 C43.5142111,156.124803 10.41838,123.316742 11.007752,82.4191893 C11.5867412,42.2557126 44.9665701,10.0907314 85.2490745,11.0196244 C123.571688,11.9039354 156.36581,43.3959119 155.996918,84.2604861 C155.636576,124.262124 122.960329,156.129078 83.4693544,156" id="Fill-6" fill="#FBFBFB"></path>
                <path d="M107.238181,86.9601655 C107.238181,91.3464792 107.258422,95.7327928 107.220395,100.118499 C107.213034,100.96807 107.351036,101.340934 108.338517,101.308749 C110.725032,101.231626 113.11584,101.244986 115.502967,101.304498 C116.362873,101.325753 116.590423,101.066448 116.573863,100.234488 C116.522342,97.6238326 116.609437,95.0095338 116.527862,92.4000932 C116.495968,91.3774499 116.85048,91.1570108 117.78828,91.1976979 C119.327769,91.2644977 120.872778,91.2310978 122.415334,91.2122724 C125.832876,91.1715853 128.806359,90.0305243 130.852469,87.2644079 C134.945915,81.7315679 131.417357,74.0143764 124.338775,73.0421366 C118.899043,72.2945868 113.409631,72.8690646 107.944752,72.7026725 C106.979964,72.6735235 107.246768,73.3245173 107.245542,73.8018318 C107.233275,78.1875382 107.238181,82.5738518 107.238181,86.9601655 M57.6267721,98.806188 C58.5774525,101.29964 58.5774525,101.29964 61.4834677,101.285673 C61.6331232,101.284458 61.7846187,101.267455 61.9312075,101.288102 C62.8144203,101.4132 63.0082364,100.993576 63.002103,100.18287 C62.9695959,95.4473757 62.959169,90.7112744 63.0094631,85.9757803 C63.0192766,85.0484785 62.7543127,84.8152867 61.8428863,84.831683 C58.755935,84.8863373 55.6671438,84.8523302 52.5789659,84.8523302 C50.0317558,84.8523302 50.0053821,84.8529374 50.0440226,87.3816111 C50.0618096,88.60101 49.5214551,90.1282949 50.2721859,90.9560043 C50.9867296,91.743634 52.5335786,91.200127 53.7075155,91.1904107 C54.6962231,91.1825162 54.7949712,91.5833146 54.5496343,92.3490825 C54.0718408,93.8399312 53.0359058,94.798811 51.5307641,95.117628 C50.0863432,95.4230849 48.8498454,94.8710762 48.0531139,93.6389247 C45.5052905,89.699562 45.3317146,85.4438115 46.8534166,81.1771301 C48.1021813,77.6762166 50.9977697,77.2778472 53.5032726,80.024531 C53.8479709,80.4022531 54.1429885,80.8006225 54.2147495,81.2955478 C54.3073642,81.9289307 54.6569692,82.0613157 55.2420977,82.048563 C56.7355859,82.0145559 58.2303008,82.0376321 59.7250157,82.0376321 C63.3811485,82.0376321 63.7681674,81.4085001 62.0839297,78.0988767 C61.7741919,77.4891773 61.3675461,76.9098414 60.9179662,76.3906253 C58.4443572,73.5297747 55.3850064,71.8950029 51.501937,71.6599893 C44.6754385,71.2464382 38.7622065,75.5598794 37.295092,82.1882352 C36.6909499,84.9179154 36.6915632,87.66217 37.044235,90.416141 C37.6790442,95.3817906 40.0128112,99.246459 44.8643479,101.053088 C49.4625742,102.766198 53.8258905,102.081197 57.6267721,98.806188 M68.7669062,86.9547001 C68.7669062,91.3440501 68.7902132,95.7340073 68.7478926,100.123357 C68.7393058,101.016652 68.9791226,101.345793 69.9120161,101.303284 C71.4030509,101.234662 72.9051259,101.202477 74.391254,101.311178 C75.5768445,101.397411 75.7774074,100.93042 75.7639138,99.8798419 C75.7080997,95.6386659 75.7314067,91.3968826 75.7547137,87.1557065 C75.7565537,86.7281882 75.4406825,86.0164674 76.1699464,85.9466313 C76.861183,85.8798316 76.7489414,86.6213087 76.8759032,87.0548997 C77.8566374,90.4064247 78.7938242,93.7707023 79.8009321,97.1143328 C80.2100314,98.471582 80.1247768,100.289142 81.1821787,101.057339 C82.2371273,101.824929 83.975339,101.167255 85.4031996,101.300855 C86.4035607,101.394981 86.7562325,100.969892 87.0027961,100.060201 C88.1871598,95.6902839 89.4371512,91.3379774 90.6945027,86.9880999 C90.8134911,86.5781925 90.718423,85.8276063 91.4581137,85.9332714 C92.2027111,86.0395437 91.8739597,86.7269737 91.8764131,87.1520629 C91.9009468,91.4430351 91.9132136,95.7340073 91.8739597,100.02498 C91.8659862,100.934671 92.0456955,101.350043 93.0871505,101.308142 C95.0756059,101.227982 97.070808,101.249844 99.0617168,101.300855 C99.9271426,101.323324 100.281654,101.128997 100.278003,100.173761 C100.243627,91.3452646 100.249147,82.5167684 100.272454,73.6888795 C100.274294,72.935257 100.082318,72.681418 99.2812933,72.6923489 C96.0446866,72.7385014 92.8074665,72.7281779 89.5708598,72.6984216 C88.8612229,72.6917416 88.5576185,72.8635991 88.3803626,73.6178289 C87.5376304,77.2110475 86.626204,80.7890843 85.6730702,84.3549757 C85.5277081,84.8996972 85.7840851,85.8549335 84.6230284,85.8039228 C83.5956802,85.7583775 83.8232302,84.9294535 83.6858415,84.4047719 C82.7596948,80.8832112 81.8605352,77.3531487 81.0208697,73.8103336 C80.8301203,73.0044859 80.5676098,72.672309 79.6690635,72.6887053 C76.4330702,72.7470032 73.1946234,72.7542905 69.9592434,72.6862762 C68.9417087,72.6650217 68.7362391,73.000235 68.7466659,73.9342167 C68.7932799,78.2737706 68.7669062,82.614539 68.7669062,86.9547001 M30,83.870374 C30.1245085,54.191858 54.6281421,30.3637845 84.7199364,31.0129565 C113.256908,31.6287286 137.008584,54.5343585 137,84.050126 C136.990798,114.250895 111.885475,137.672097 82.2138203,136.985274 C53.8412241,136.328208 30.0055201,113.421363 30,83.870374" id="Fill-8" fill="#194481"></path>
                <path d="M17.2441273,95.7063132 C20.5895219,95.7038288 23.4788082,95.1640814 26.3921319,94.9541452 C27.0411397,94.9069406 27.8325686,94.4032178 27.9840037,95.7311577 C28.1270258,96.983943 27.2791092,96.7137588 26.7118283,96.7758701 C22.8826826,97.1988482 19.0487294,97.5733794 15.2177808,97.9777241 C14.7352316,98.0286554 14.2791233,98.0479099 14.3025597,97.3895299 C14.3314045,96.577735 13.7136453,95.6324007 14.9359432,95.0671878 C17.866093,93.713161 20.7529757,92.2591351 23.6542807,90.8386493 C24.0833469,90.628713 24.4949861,90.3827522 25.0790931,90.0641211 C21.4158049,89.0927001 17.9448153,88.1728315 14.4744266,87.2523418 C13.4780795,86.9877476 12.7305187,85.5455228 13.0928814,84.6225486 C13.2653492,84.1821794 13.6421342,84.2654085 13.9558213,84.2324895 C17.884121,83.823176 21.8148245,83.4300113 25.7437251,83.0225611 C26.3350433,82.9610709 26.741875,82.9691453 26.8157898,83.8001948 C26.8981176,84.7331068 26.4047515,84.7349701 25.7767764,84.7952181 C22.6789663,85.0933524 19.5841608,85.4194368 16.4593086,85.9225385 C19.6027897,86.7511035 22.7426652,87.5927118 25.8909537,88.3995378 C26.6613499,88.5970518 27.3085549,88.685871 27.4233331,89.8020114 C27.5381113,90.9094562 26.8338177,91.0597656 26.2172604,91.3622477 C23.3748468,92.7572679 20.5198136,94.124338 17.2441273,95.7063132" id="Fill-10" fill="#194481"></path>
                <path d="M139.13853,49.7375211 C138.785737,49.0890281 137.954582,48.8302514 138.574062,47.80073 C139.709575,45.915446 139.47458,44.3050733 138.049657,42.5600376 C136.787975,41.0148246 134.997105,40.4600372 133.212812,41.0607466 C128.60917,42.6109241 127.361241,47.047361 130.444886,50.9010851 C130.47598,50.9395603 130.509465,50.9761738 130.540559,51.0146489 C132.189714,53.0625216 133.282773,53.0190819 134.999497,50.9209433 C135.339134,50.505163 135.131645,50.3189928 134.933124,50.0434608 C134.584517,49.5600388 134.252055,49.0629642 133.880128,48.5994003 C133.469932,48.0880527 133.756352,47.8156236 134.139042,47.5121661 C134.515155,47.2142937 134.809946,46.9759958 135.189646,47.5469179 C135.850384,48.5404464 136.55298,49.5060494 137.275307,50.4530354 C137.614347,50.8967411 137.463065,51.1257305 137.092334,51.406227 C135.642895,52.5040109 134.206611,53.6210324 132.770327,54.7368127 C132.484505,54.9589759 132.232169,55.1575574 131.888346,54.8168659 C129.462449,52.4121669 126.86494,50.109241 127.005459,46.1537439 C127.124452,42.8026795 130.566271,39.3349484 134.058318,39.0203207 C137.126417,38.7441681 140.190928,41.3145587 140.897708,44.7853926 C141.300729,46.7650028 140.471368,48.2934605 139.13853,49.7375211" id="Fill-12" fill="#194481"></path>
                <path d="M66.9989271,142.397224 C66.8762341,144.689633 66.066579,146.727199 64.4614941,148.355236 C62.5831655,150.261824 60.300602,150.346574 57.9178689,149.443953 C55.691021,148.600597 54.1108304,147.192437 54.0082899,144.626219 C53.9851738,144.062006 53.9839884,143.437935 54.3734052,142.989884 C54.4617204,142.887947 54.959605,143.159385 55.2755245,143.232282 C55.7479221,143.341332 55.6791666,143.701076 55.6625705,144.030595 C55.5564737,146.080607 56.7205751,147.223848 58.4679127,147.926743 C60.1761308,148.613636 61.814408,148.46073 63.1628453,147.169916 C66.0843606,144.371967 66.4453269,139.054621 61.2513243,137.425398 C61.0687667,137.36791 60.8956925,137.280196 60.7131349,137.222116 C58.3736703,136.472993 58.437684,136.502034 57.4691801,138.689542 C56.9600339,139.840488 57.1016939,140.383365 58.3653722,140.737776 C58.888151,140.884163 60.1524221,140.800598 59.4956886,142.130527 C59.2751969,142.577393 59.10805,142.757561 58.6558049,142.487901 C58.5757877,142.439895 58.4738399,142.429228 58.3825611,142.398409 C54.8132032,141.193531 54.8132032,141.193531 56.185942,137.703356 C57.3962755,134.624486 57.3992391,134.615004 60.588071,135.526515 C62.9405754,136.199184 65.1555689,137.099435 66.3516772,139.463556 C66.8139985,140.378624 67.0167086,141.365403 66.9989271,142.397224" id="Fill-14" fill="#194481"></path>
                <path d="M40.762698,135.681743 C40.6957906,138.080658 42.8760076,140.209098 45.4450109,140.252704 C48.1984616,140.299256 51.0712607,137.338179 51.1707177,134.350584 C51.2484749,131.987026 49.0465582,129.727768 46.5890673,129.651753 C43.9344707,129.568666 40.8440719,132.767218 40.762698,135.681743 M39.0002002,135.804901 C39.0375719,132.019436 42.8470747,127.987067 46.3744814,128 C49.7403458,128.012995 53.0688386,131.15321 52.9989174,134.250409 C52.9151324,137.968108 49.1279321,141.976905 45.6782827,142 C42.3479816,142.02169 38.9700617,138.888546 39.0002002,135.804901" id="Fill-16" fill="#194481"></path>
                <path d="M33.7812728,129.219943 C36.7581596,129.203731 40.1655462,126.181237 40.2015264,123.526013 C40.233088,121.167475 37.7700234,118.734765 35.3479889,118.732371 C32.3837267,118.729382 28.8993299,121.862535 28.8740807,124.553649 C28.8513563,126.967217 31.2348857,129.233639 33.7812728,129.219943 M33.5218367,131 C30.9811307,130.845675 29.1720218,129.400525 27.8622169,127.275867 C26.599123,125.225979 26.7645056,123.197624 28.0919851,121.232076 C28.8482002,120.111726 29.8752135,119.233629 31.0158485,118.476361 C34.4825708,116.17405 37.8609207,116.579601 40.3599655,119.587141 C42.8350234,122.565969 42.4947897,125.894719 39.4333179,128.505082 C37.8009537,129.896398 35.9987884,130.953942 33.5218367,131" id="Fill-18" fill="#194481"></path>
                <path d="M107.57303,25.1010289 C109.026717,25.1120554 109.851975,24.5815598 110.208282,23.3753869 C110.576447,22.1300087 109.791503,21.4776095 108.905181,21.068405 C107.384502,20.3663867 105.799794,19.8120004 104.239985,19.2012567 C103.923992,19.0775152 103.587842,18.9335586 103.410578,19.4132099 C103.018106,20.4717507 102.624449,21.530904 102.23672,22.5912826 C102.142455,22.8479542 102.171505,23.1217781 102.436513,23.2118276 C104.242357,23.8237965 105.940894,24.7634965 107.57303,25.1010289 M106.85093,26.571837 C107.541016,29.067494 108.209759,31.4859656 108.905181,34 C107.634688,33.9503809 106.955866,33.4652164 106.712201,32.1598052 C106.376644,30.3606534 105.847222,28.6007069 105.39665,26.8248332 C105.195079,26.030315 102.471491,24.316312 101.727455,24.503762 C101.295262,24.6128015 101.337355,25.0483469 101.224119,25.3368728 C100.665054,26.7598995 100.148675,28.2006912 99.6364466,29.6420954 C99.4544393,30.1548261 99.309782,30.4843949 98.6374816,30.195869 C98.0054955,29.925108 97.8626168,29.7033535 98.124067,29.0086861 C99.5552251,25.2204823 100.941326,21.4132884 102.312013,17.6011939 C102.571684,16.8777352 102.927992,16.9163278 103.513735,17.1533968 C105.432222,17.9307627 107.392209,18.6027646 109.296467,19.414435 C111.389847,20.3069663 112.301662,21.809016 111.912155,23.4770754 C111.412376,25.6186602 109.991296,26.6459594 107.636466,26.5730622 C107.402288,26.5657112 107.167516,26.571837 106.85093,26.571837" id="Fill-20" fill="#194481"></path>
                <path d="M20.7740615,111.021723 C20.8566909,112.722587 21.7039412,114.111423 22.5056855,115.527178 C22.873925,116.178157 23.2547386,115.744987 23.5948363,115.584078 C25.658774,114.610057 27.7095389,113.60667 29.7662915,112.617354 C32.3403757,111.379027 32.3152276,111.39371 31.0392626,108.663762 C30.3273328,107.140937 29.3764964,105.939319 27.6215207,105.82552 C25.2989171,105.6744 23.3750901,106.649644 21.7859718,108.314411 C21.0914062,109.041867 20.7489135,109.974284 20.7740615,111.021723 M26.7934308,104.000456 C29.4393666,103.974148 30.9787875,105.087663 31.9697411,106.946378 C32.800226,108.5053 34.1432525,110.242874 33.987574,111.765086 C33.81034,113.492871 31.3224778,113.537534 29.8710751,114.346974 C27.623317,115.599373 25.2468247,116.609491 22.9326039,117.738914 C22.428445,117.984866 22.0063168,118.262021 21.6344846,117.518046 C20.8417218,115.932816 19.9052557,114.411827 19.3508007,112.718304 C18.5604329,110.305891 19.0981225,108.188376 21.0399125,106.562766 C22.8403943,105.05646 24.9079246,104.138728 26.7934308,104.000456" id="Fill-22" fill="#194481"></path>
                <path d="M121.651865,30.4308355 C119.670845,32.786516 117.692892,35.1439843 115.706352,37.4948974 C115.35676,37.9084674 115.138419,38.5288224 114.353371,37.8554303 C113.642534,37.2469937 114.171828,36.9710818 114.488301,36.5926712 C116.968562,33.6297459 119.447597,30.6650329 121.951165,27.7211772 C122.193426,27.4369223 122.349209,26.7802161 122.904876,27.0740057 C123.440303,27.3564728 123.934025,27.6955526 123.853067,28.5322273 C123.591793,31.2251998 123.45073,33.9300907 123.268574,36.6302143 C123.182709,37.9126389 123.108498,39.1950634 123.000553,40.9405196 C125.002426,38.5699411 126.716039,36.5408259 128.429652,34.5117108 C128.808683,34.0629814 129.215927,33.6345133 129.561226,33.1625429 C129.862978,32.7489729 130.142652,32.6989154 130.510643,33.0564688 C130.80933,33.3472788 131.266865,33.5349943 130.80013,34.0850305 C128.107047,37.2535489 125.441563,40.4435205 122.765039,43.6251492 C122.545471,43.8873549 122.351049,44.1912753 121.932765,43.8438526 C121.482589,43.4684216 121.036706,43.1871463 121.096812,42.4487987 C121.374032,39.0788586 121.577654,35.7029593 121.808875,32.3288477 C121.850581,31.7198152 121.899033,31.1113787 121.944418,30.5023462 C121.846901,30.4785093 121.749383,30.4546724 121.651865,30.4308355" id="Fill-24" fill="#194481"></path>
                <path d="M29.7665362,59.3027834 C26.4727872,58.0461217 23.5160759,56.935328 20.5768084,55.7799804 C20.0790392,55.5834554 19.1713426,55.6402157 19.6479301,54.555666 C20.0896301,53.5498483 20.6478293,54.1827567 21.106973,54.3548687 C24.588242,55.6591358 28.0626581,56.9829334 31.5146466,58.3592191 C32.0516641,58.5728333 33.0135609,58.4611436 33,59.3162106 C32.9836574,60.3324038 32.1158321,60.5875202 31.235547,60.7993034 C27.5144268,61.6940416 23.8026514,62.6278408 20.0883841,63.5500437 C19.96877,63.5799497 19.8553858,63.6354894 19.4510652,63.7868503 C22.4825353,64.9617283 25.2735312,66.044447 28.0645271,67.1253348 C28.3915969,67.2516723 28.7224047,67.3694653 29.0525895,67.4903099 C29.6730877,67.7167409 29.5167171,68.1311524 29.337919,68.5687564 C29.1503989,69.0277217 28.8787752,69.0857027 28.4146475,68.9044358 C24.4835797,67.3731273 20.5419209,65.8680628 16.6102301,64.3385852 C16.3230316,64.2268955 15.8726097,64.1664732 16.0339642,63.6452546 C16.230829,63.0056327 16.4999608,62.5332402 17.2855514,62.3580766 C20.2347868,61.7007552 23.1665785,60.9695844 26.1021081,60.254282 C27.2122765,59.9832972 28.3143461,59.6811857 29.7665362,59.3027834" id="Fill-26" fill="#194481"></path>
                <path d="M112.375835,139.16408 C111.813379,137.960828 111.24906,136.655946 110.594723,135.399997 C110.312874,134.858597 109.890721,135.31907 109.564174,135.467751 C107.502454,136.405007 105.438872,137.337245 103.39888,138.319671 C102.794829,138.610132 102.460832,138.649655 102.131801,137.935734 C101.773592,137.158451 102.201953,136.995968 102.740819,136.748794 C105.304155,135.576282 107.865009,134.399379 110.408479,133.18358 C111.086407,132.859869 111.4322,132.930132 111.758747,133.670401 C113.415076,137.427583 115.104308,141.170336 116.827685,144.896778 C117.162924,145.621363 117.015791,145.9319 116.326689,146.239928 C113.753419,147.390482 111.196291,148.576168 108.645991,149.77691 C108.082914,150.042278 107.718497,150.211662 107.363392,149.440652 C106.998975,148.64894 107.418023,148.472656 107.961855,148.223599 C110.021713,147.278814 112.061704,146.286979 114.137082,145.379835 C114.800731,145.089373 114.911235,144.856627 114.620695,144.151489 C113.388381,141.164062 113.419422,141.150261 110.546921,142.464553 C109.264321,143.051122 107.967443,143.608207 106.708434,144.242455 C106.042923,144.577458 105.715133,144.531662 105.358787,143.788255 C104.931047,142.896795 105.61332,142.850371 106.046648,142.644601 C107.910949,141.75816 109.796358,140.917515 111.66128,140.033583 C111.976653,139.883647 112.518622,139.8711 112.375835,139.16408" id="Fill-28" fill="#194481"></path>
                <path d="M149.850825,73.7929799 C148.865261,73.907696 148.149511,73.9773891 147.438505,74.0791533 C147.130145,74.1229428 146.721568,74.0865544 146.767822,74.6274468 C146.932083,76.5572672 146.840761,78.5345775 147.446807,80.3885373 C147.821582,81.535698 148.747254,82.1271642 149.946298,81.9094504 C151.10324,81.6991376 151.477422,80.7604394 151.441842,79.6829718 C151.393216,78.1904293 151.213538,76.7034377 151.127553,75.211512 C151.067067,74.1642653 150.805554,73.4364966 149.850825,73.7929799 M139.975609,84.7058088 C139.692749,83.7819127 139.983318,83.1380225 140.726939,82.5366882 C142.052292,81.4647714 143.246593,80.2146129 144.587957,79.1667494 C145.469154,78.478453 145.821396,77.7457504 145.543872,76.6368283 C145.424679,76.1594614 145.384355,75.6420056 145.409261,75.1486032 C145.447213,74.4060325 145.195188,74.2210065 144.490705,74.3166033 C143.063949,74.509647 141.62474,74.607094 140.189682,74.7298278 C139.6376,74.7773178 139.043414,74.9937981 139.001904,73.9798561 C138.966917,73.1379881 139.418783,73.1151683 139.963749,73.065828 C143.78978,72.7210631 147.616404,72.3769149 151.442435,72.0253656 C151.940555,71.9797259 152.371072,71.9112663 152.441046,72.6655553 C152.666386,75.0998797 153.058951,77.5274198 152.992535,79.974696 C152.931456,82.2258447 152.101258,83.2712411 150.438488,83.5777674 C148.545041,83.9268497 146.966477,83.0263902 146.149917,81.1261739 C146.035468,80.8597366 145.94296,80.5834312 145.787002,80.1708234 C143.989028,81.8076861 142.235529,83.403843 140.481437,85 C140.313026,84.9019363 140.144021,84.8044893 139.975609,84.7058088" id="Fill-30" fill="#194481"></path>
                <path d="M58.7529983,24.0719363 C58.901129,25.636576 59.3822574,27.406363 60.6923252,28.8323558 C62.0574976,30.31983 63.6762697,30.5858313 65.4520604,29.9038893 C67.240294,29.2181831 68.3749751,27.8994691 68.3252031,25.8122373 C68.3032798,24.8837422 68.7245635,24.6146041 69.3721908,24.5656699 C70.2852684,24.4979148 69.9291622,25.3366972 69.9427902,25.7601663 C70.0251509,28.3925753 68.5379188,30.5074111 65.9936262,31.4904866 C63.2810571,32.5388078 60.7776485,31.9534795 59.1855399,29.8819316 C57.834588,28.1246919 57.2195494,26.0456158 57.025202,23.8404399 C56.7769349,21.0185677 58.3785239,18.660943 61.1408649,17.5912916 C64.1176992,16.4394558 66.3438071,16.9633027 67.8310392,19.2255684 C68.0526427,19.5630889 68.7038252,19.9853032 68.1219678,20.4646074 C67.6278039,20.8723924 67.0856456,20.9978648 66.5180088,20.2858094 C65.2346045,18.6759997 63.6667894,18.3635736 61.7322026,19.1477756 C59.8367224,19.9162935 58.7660338,21.5599807 58.7529983,24.0719363" id="Fill-32" fill="#194481"></path>
                <path d="M128.999645,135.01104 C128.869099,137.301068 127.15247,139.095699 124.802628,140.367867 C122.910921,141.392652 121.068626,141.147157 119.389209,139.807635 C119.126285,139.59802 118.339344,139.443799 118.935345,138.841392 C119.264152,138.509659 119.542327,137.978382 120.293885,138.378099 C122.635186,139.621311 124.312773,139.283912 125.98853,137.412485 C127.470296,135.757597 127.622804,133.634379 126.414332,131.468987 C124.806899,128.586624 122.297229,127.264728 119.977279,128.081786 C117.978206,128.786167 115.811374,131.276368 116.942982,134.00514 C117.323032,134.922284 116.865508,135.31067 116.284148,135.541687 C115.480127,135.86083 115.519779,134.967606 115.373371,134.560966 C114.490046,132.10098 115.200122,129.60952 117.227257,127.802299 C119.392869,125.871701 121.963542,125.468837 124.225539,126.706384 C126.849894,128.140956 129.031977,131.63391 128.999645,135.01104" id="Fill-34" fill="#194481"></path>
                <path d="M53.0445975,30.3407327 C52.965582,30.2538843 52.8859444,30.13336 52.7745761,30.0494656 C51.0405909,28.7319695 49.3034948,27.4168366 47.5620435,26.1082026 C47.3741485,25.9670001 47.1675883,25.7968481 46.9068995,26.0178093 C46.618213,26.2624028 46.7588232,26.5436262 46.8260175,26.8130334 C47.2907778,28.6764338 47.7822914,30.5333353 48.2184319,32.4020529 C48.3677525,33.0442584 48.5736905,33.2291805 49.2114138,32.8309776 C50.3064314,32.1485973 51.4418899,31.5252976 52.5487287,30.8600507 C52.7428455,30.7430712 53.0365093,30.6804458 53.0445975,30.3407327 M59,32.7069085 C57.9609776,33.8755216 57.0289683,33.8087606 56.1940174,32.7825316 C55.1742823,31.5288424 54.1321491,31.6080104 52.9568717,32.5733864 C52.5437514,32.9130996 52.0211294,33.1322884 51.5495252,33.4076037 C49.02103,34.8822541 48.9457476,34.8993874 49.6015138,37.5810533 C49.8590918,38.6350502 49.0546272,38.8187907 48.5363603,38.9629472 C47.7474499,39.1827268 47.9844963,38.3691878 47.8924153,37.9845734 C46.9417409,34.0238138 46.0433288,30.0518288 45.0659012,26.0969773 C44.9047594,25.4453189 45.0186163,25.0725206 45.6370524,24.8645571 C46.3662345,24.6199637 46.8801462,23.5127943 47.858196,24.2489379 C51.5632129,27.0369487 55.2452096,29.8527274 59,32.7069085" id="Fill-36" fill="#194481"></path>
                <path d="M137.298949,111.329887 C134.24631,109.614342 133.265037,106.912432 134.552643,103.931563 C135.915103,100.775314 138.726198,99.422888 142.314135,100.227399 C143.002913,100.381592 143.686659,100.59758 144.33518,100.86477 C149.278028,102.901648 150.439202,107.250245 147.114196,111.270446 C145.904588,112.733514 144.228247,113.141361 142.34936,112.959507 C142.014721,112.927138 141.361168,113.005412 141.527859,112.414535 C141.64926,111.983736 141.658066,111.420519 142.482084,111.334006 C145.528433,111.015615 146.753767,109.872703 147.158227,107.223173 C147.233081,106.731167 147.173953,106.276828 147.053181,105.813071 C146.46882,103.559617 143.481598,101.695176 140.522683,101.732841 C138.160708,101.763444 136.396933,103.180019 135.818234,105.505862 C135.463466,106.933031 135.837104,108.242495 136.981923,109.157648 C137.872617,109.869172 138.058807,110.445336 137.298949,111.329887" id="Fill-38" fill="#194481"></path>
                <path d="M22.7886481,71.9709962 C20.8619123,72.3675914 18.9283242,72.738966 17.0121783,73.1822194 C16.5879601,73.2805801 15.8385701,72.981715 15.7974565,73.7446406 C15.7631951,74.3789407 16.4789466,74.4205549 16.8844768,74.6418663 C18.3035211,75.4174023 19.7942029,76.0630517 21.1920675,76.8726356 C22.3949536,77.5693569 22.8092049,77.3442623 22.8372369,75.92686 C22.8584167,74.8644388 23.1605398,73.8089533 23.3137817,72.7465322 C23.3685999,72.3663304 23.5174812,71.8581337 22.7886481,71.9709962 M27.4245251,82 C23.2384066,79.7900378 19.4578184,77.6494325 15.5439222,75.7982346 C13.9641608,75.0517024 13.792231,74.202396 14.1678603,72.7301387 C14.3273315,72.1046658 14.5933245,71.8947037 15.1265562,71.7875158 C19.7144673,70.8656999 24.3017555,69.9369483 28.9395013,69 C29.1830686,70.4798235 28.7096386,71.2641866 27.1828266,71.1860025 C25.5146086,71.1002522 24.9440007,72.056116 24.913477,73.5889029 C24.9010183,74.1960908 24.74217,74.8001261 24.6493528,75.406053 C24.221397,78.1929382 24.1846438,78.2673392 26.6963149,79.5542245 C27.8356617,80.1374527 27.1547946,80.9192938 27.4245251,82" id="Fill-40" fill="#194481"></path>
                <path d="M143.671505,94.3227374 C143.464242,94.9989484 143.580011,95.2818159 144.272134,95.1294559 C146.333567,94.6741972 148.400602,94.2450399 150.463903,93.7976723 C150.739009,93.7381851 151.118682,93.784318 151.172209,93.3903674 C151.220757,93.0328375 150.934447,92.902937 150.651249,92.7693945 C148.79708,91.8940836 146.937931,91.0272709 145.101811,90.1167533 C144.435829,89.786539 144.224831,89.9650004 144.152008,90.6363553 C144.015077,91.9056168 143.824619,93.1700222 143.671505,94.3227374 M140.247609,86 C144.293919,87.9800722 148.336494,89.9692495 152.392139,91.9323253 C153.409163,92.4246118 152.848991,93.2173691 152.821605,93.8759768 C152.796708,94.4854165 152.721396,95.0596496 151.797112,95.23629 C147.541049,96.0496857 143.307393,96.9735575 139.056932,97.8197318 C138.734522,97.884075 138.043021,98.3302286 138.039286,97.519868 C138.037419,96.9850907 137.739906,96.0436156 138.811701,96.0879274 C141.601358,96.2026526 142.219415,94.5406546 142.215058,92.3019954 C142.214436,92.0573697 142.265473,91.812744 142.294727,91.5675113 C142.599709,89.0156341 142.631452,88.9488628 140.218356,87.8495646 C139.165855,87.3700254 139.549884,86.7144528 139.630798,86.0273155 C139.836194,86.0182104 140.04159,86.0091052 140.247609,86" id="Fill-42" fill="#194481"></path>
                <path d="M148.346588,64.7531722 C148.078185,63.454877 147.769641,61.5388827 146.679852,60.2666958 C146.042994,59.5232022 144.455941,60.8292113 143.254117,61.046385 C143.115123,61.0713065 142.989309,61.1591254 142.852112,61.204815 C142.530388,61.3110283 142.377613,61.4884462 142.512414,61.8420952 C143.071987,63.3148415 143.284073,64.9234697 144.149793,66.2704213 C144.785453,67.258977 145.782979,67.6215266 146.924291,67.2560102 C147.88527,66.9480508 148.456226,66.2769484 148.346588,64.7531722 M149.999544,64.9347437 C150.021112,67.2091339 149.277612,68.2795748 147.654012,68.7833466 C145.703296,69.3879914 143.8071,68.7062084 142.723302,66.9984873 C141.963026,65.801065 141.616738,64.4321586 141.274644,63.0952943 C140.970294,61.9049925 140.432889,61.8682035 139.455733,62.2627951 C138.380923,62.6971425 137.243804,62.9778069 136.154614,63.3801123 C135.61661,63.5788915 135.333229,63.6269545 135.104966,62.9522919 C134.873708,62.2687288 135.006711,62.0432479 135.683111,61.8278543 C139.465918,60.6244984 143.23195,59.3707059 147.005172,58.1394615 C147.355054,58.0255343 147.769042,57.8036137 147.943384,58.3732496 C148.657528,60.7075703 149.748515,62.9338974 149.999544,64.9347437" id="Fill-44" fill="#194481"></path>
                <path d="M90.6252656,29 C89.1144247,28.9169909 87.5836247,28.4660161 86.3135023,27.318756 C85.4201828,26.5115854 84.8885459,25.478308 85.0197919,24.2542335 C85.3572815,21.1079408 85.7776316,17.9715596 86.1471767,14.8289838 C86.2149166,14.2497785 86.3237842,13.8997774 87.0423107,14.02553 C87.7112418,14.14261 87.925953,14.3426991 87.8164805,15.0885421 C87.4293956,17.7212934 87.131824,20.3676731 86.7907054,23.007858 C86.4653122,25.5241488 87.5818103,26.9594629 90.129313,27.2791098 C92.6598808,27.5962789 94.1011674,26.4434436 94.3739413,23.9395422 C94.6569972,21.3433397 94.9860194,18.7527124 95.2890343,16.1589878 C95.3549597,15.590933 95.3464922,15.0724358 96.2059417,15.1901353 C97.0569238,15.3065958 97.0520852,15.7445618 96.9583381,16.4228824 C96.5942363,19.0581116 96.053527,21.6939602 95.9906257,24.3397204 C95.9216762,27.2221185 93.9971383,28.9188493 90.6252656,29" id="Fill-46" fill="#194481"></path>
                <path d="M33.0764747,54.9885851 C32.2236452,55.0727761 31.4921207,54.6796827 30.7846109,54.1908902 C28.4182399,52.5567363 26.0426325,50.9353019 23.6762615,49.2999365 C23.2575438,49.0104163 22.68427,48.8141725 23.2119775,48.0800751 C23.685498,47.4210835 24.0272455,47.4762014 24.6319232,47.9086646 C26.8498957,49.4937576 29.1029665,51.031001 31.3548059,52.5700615 C33.1676074,53.8099107 34.8985126,53.4107604 36.324616,51.4513505 C37.7888965,49.4398511 37.6072469,47.6215672 35.7796671,46.3417424 C33.5456849,44.7772429 31.2963086,43.235154 29.0469323,41.693065 C28.5758748,41.3702318 28.1448418,41.1449148 28.6577711,40.4526102 C29.1115872,39.8408624 29.4231625,39.9111225 29.9711901,40.2969476 C32.3621915,41.9801625 34.7845968,43.6215847 37.1922237,45.2842061 C38.7537946,46.3635473 39.2728814,47.8202338 38.8683262,49.6506315 C38.2008409,52.6700005 35.7119334,55.0061501 33.0764747,54.9885851" id="Fill-48" fill="#194481"></path>
                <path d="M43.2724591,44.0121515 C42.9322107,44.3327067 42.6426376,44.6670944 42.2921335,44.9172838 C41.9398196,45.1698789 41.7938265,44.7813636 41.6146531,44.587106 C38.8341482,41.5710007 36.0693285,38.5404614 33.2677089,35.5436014 C32.8273165,35.0732934 32.9823588,34.8291182 33.3569939,34.4893177 C35.2730025,32.7506217 37.1920275,31.0155342 39.0784755,29.2455645 C39.5478252,28.8059288 39.7891361,29.0260474 40.1299878,29.3640436 C40.5450425,29.7736085 40.6729373,30.0538687 40.1299878,30.521771 C38.6501487,31.7961732 37.2535618,33.1668021 35.7791522,34.44782 C35.239219,34.9163237 35.2681763,35.1869612 35.7206343,35.7198165 C37.9051012,38.290272 37.8857964,38.3065102 40.3900003,36.0313504 C41.0397299,35.4407591 41.7111775,34.8718188 42.336776,34.2577722 C42.7928536,33.8097167 43.1065578,33.5180296 43.7007859,34.183798 C44.2576108,34.8080686 43.9463198,35.0492368 43.5047208,35.4425634 C42.264986,36.547366 41.0819593,37.7159189 39.8223164,38.7966649 C39.2196424,39.3138834 39.2401538,39.6560895 39.7831034,40.1979661 C40.7845436,41.1969194 41.716607,42.2650357 42.674008,43.3078924 C42.8706764,43.5225982 43.0516596,43.7511366 43.2724591,44.0121515" id="Fill-50" fill="#194481"></path>
                <path d="M81.9892597,14.9576381 C82.0557054,15.3937569 81.8116574,15.6252033 81.3179726,15.6543572 C81.1173938,15.6668518 80.916194,15.6805363 80.7156151,15.6954107 C77.2902501,15.9530362 77.3057747,15.9518462 77.6752621,19.2129201 C77.9578112,21.7058775 78.2130369,24.2024048 78.4322454,26.7007171 C78.4738515,27.1731295 78.8756302,27.8472395 77.8100163,27.9817045 C76.7524752,28.1149795 76.7816616,27.4973925 76.7214258,26.8679058 C76.4134162,23.6496704 76.0768412,20.4338148 75.8309303,17.2114144 C75.7669686,16.3689257 75.6142058,16.0137239 74.638014,16.2154214 C73.8096172,16.3867751 72.9321623,16.3248974 72.0876198,16.4397281 C71.4057759,16.5331396 71.0940404,16.4105742 71.0114491,15.6692317 C70.9300998,14.9385988 71.2896513,14.8868358 71.8547496,14.8392375 C74.9124903,14.5798272 77.9720939,14.3245816 81.0242457,14.0110283 C81.8371179,13.9277314 81.9532425,14.3233917 81.9892597,14.9576381" id="Fill-52" fill="#194481"></path>
                <path d="M129.8634,115 C130.273342,115.268308 130.610904,115.481962 130.940978,115.707415 C133.692016,117.581227 136.466141,119.424606 139.17787,121.353073 C140.015223,121.948693 140.442636,121.826339 140.90499,120.982286 C141.290597,120.279218 141.809107,119.648817 142.240263,118.96873 C142.584065,118.426523 142.871711,118.19548 143.552451,118.635828 C144.327408,119.138286 143.924954,119.506589 143.614846,119.958117 C141.905197,122.449908 140.193052,124.939215 138.489018,127.434732 C138.193885,127.867628 137.99609,128.255806 137.344052,127.785645 C136.75753,127.362686 136.612148,127.026059 137.109443,126.486336 C137.143761,126.449692 137.174959,126.408701 137.199294,126.364604 C137.770217,125.328014 139.197836,124.383344 138.918926,123.390851 C138.677454,122.53127 137.170591,122.017633 136.214061,121.365495 C134.005244,119.859365 131.787068,118.366899 129.583242,116.854558 C129.288733,116.652085 128.754624,116.501161 129.127752,115.953365 C129.347386,115.631022 129.603833,115.334143 129.8634,115" id="Fill-54" fill="#194481"></path>
                <path d="M112.199876,36 C111.86652,35.8039329 111.507428,35.6374015 111.197412,35.3998586 C110.762911,35.0686811 111.160306,34.7582415 111.303943,34.4955618 C113.304682,30.8463251 115.34133,27.2190831 117.313342,23.552879 C117.680812,22.8697862 117.960904,22.8930377 118.527071,23.2273573 C119.095035,23.5623053 119.107004,23.8614334 118.797587,24.4138148 C116.76453,28.0423137 114.759003,31.6884083 112.748688,35.3307324 C112.605051,35.5908984 112.516476,35.8912833 112.199876,36" id="Fill-56" fill="#194481"></path>
                <path d="M125.08432,121 C125.331199,121.205778 125.595145,121.415105 125.846901,121.638031 C128.687528,124.148174 131.527546,126.658907 134.362078,129.174371 C134.816823,129.577649 135.370928,129.873308 134.659552,130.636108 C133.969511,131.375846 133.667161,130.814685 133.275813,130.469356 C130.358378,127.899491 127.449478,125.321347 124.55155,122.730786 C124.301014,122.507268 123.792627,122.309177 124.09132,121.846766 C124.315034,121.500846 124.558865,121.115307 125.08432,121" id="Fill-58" fill="#194481"></path>
                <path d="M139.9955,85.9690296 C139.6645,85.9793531 139.3345,85.9896765 139.0045,86 C139.0145,85.6668961 139.0225,85.3337922 139.0325,85 C139.3165,85.1094288 139.6005,85.2188575 139.8855,85.3282863 C139.9225,85.541638 139.9585,85.7556779 139.9955,85.9690296" id="Fill-60" fill="#351C0D"></path>
                <path d="M69.0208248,87.393021 C69.0208248,83.0152497 69.0461504,78.6368658 69.0003232,74.2597071 C68.9906754,73.3176317 69.1926766,72.9795137 70.1924319,73.0009523 C73.3738002,73.069556 76.5575806,73.0622056 79.7383459,73.0027899 C80.6223274,72.9862515 80.8804065,73.3219195 81.067936,74.1341379 C81.8928245,77.7082663 82.776806,81.2683064 83.6873189,84.8209961 C83.8229914,85.3502244 83.5986796,86.1863316 84.6092886,86.231659 C85.7501432,86.2831117 85.498094,85.3202103 85.6410023,84.7707685 C86.5780467,81.1739764 87.4746909,77.5649336 88.3031974,73.9405775 C88.4774611,73.1791994 88.7753375,73.0064651 89.4735985,73.0125905 C92.6555698,73.0432171 95.8381442,73.0530176 99.0195125,73.0070777 C99.8070158,72.9960521 99.9957512,73.2520907 99.9939423,74.0116313 C99.9716317,82.9166319 99.9656018,91.8216326 100,100.726633 C100.00359,101.690147 99.6550626,101.886158 98.8042456,101.863494 C96.8469442,101.812041 94.885422,101.78999 92.9305327,101.870844 C91.9066578,101.913109 91.7293792,101.493524 91.737821,100.57595 C91.7758093,96.2484065 91.7637495,91.9202503 91.740233,87.5920942 C91.737821,87.1633213 92.06042,86.4699342 91.3289947,86.362741 C90.6017903,86.2561603 90.6946506,87.0132507 90.5782737,87.4267103 C89.3421469,91.8142822 88.113256,96.2043041 86.9488848,100.61209 C86.7064833,101.529664 86.3597648,101.958436 85.3762903,101.863494 C83.9719296,101.728124 82.2636626,102.391497 81.226522,101.617868 C80.1869695,100.843014 80.270182,99.009704 79.8685915,97.6400808 C78.8784841,94.2680882 77.9565143,90.874657 76.9929384,87.4940889 C76.8681197,87.0567406 76.9778637,86.3088381 76.2988984,86.3756042 C75.5813419,86.446658 75.892484,87.1645463 75.8906751,87.5957693 C75.8677615,91.8736978 75.8448479,96.1522389 75.8991169,100.430167 C75.9129856,101.489849 75.7158083,101.960887 74.5496282,101.873907 C73.0891896,101.764264 71.6118673,101.796728 70.1466047,101.865331 C69.2294589,101.908821 68.9936903,101.576829 69.0021322,100.675793 C69.0437384,96.2484065 69.0208248,91.8204075 69.0208248,87.393021" id="Fill-62" fill="#FDFDFD"></path>
                <path d="M57.6335471,98.8787733 C53.8669974,102.11752 49.5430931,102.795062 44.9864007,101.100607 C40.178686,99.3136496 37.8659989,95.4910633 37.2369237,90.5794844 C36.8880453,87.8549006 36.8874375,85.140528 37.4861226,82.4405712 C38.9393775,75.8849919 44.7991976,71.6185195 51.564643,72.0269668 C55.4120303,72.260022 58.4437473,73.8769928 60.895621,76.7066918 C61.3405321,77.2202542 61.7435049,77.7932817 62.050445,78.3957415 C63.7194696,81.6699272 63.3359465,82.291608 59.7128381,82.291608 C58.2316243,82.291608 56.7504106,82.2693837 55.2704124,82.3024199 C54.6905692,82.3156343 54.344122,82.1846909 54.2529517,81.5582049 C54.181231,81.0686687 53.8888782,80.6746372 53.5472934,80.3010281 C51.0644218,77.5836522 48.1955958,77.9782843 46.9581107,81.4410766 C45.4495459,85.6612983 45.6215539,89.8707082 48.1463639,93.7671754 C48.9358988,94.9859101 50.1618357,95.531908 51.5932097,95.2291765 C53.084756,94.9138312 54.110726,93.9653925 54.5842039,92.4913782 C54.8273247,91.7333481 54.7294686,91.3375146 53.7496915,91.3453231 C52.5863583,91.3549337 51.0534814,91.8925224 50.3453919,91.1134692 C49.6014421,90.294172 50.1375236,88.7841183 50.1192895,87.5779974 C50.080998,85.0762576 50.1077413,85.0762576 52.6319435,85.0762576 C55.6922271,85.0762576 58.7525107,85.1098945 61.8121866,85.0552346 C62.7147727,85.0390168 62.9773432,85.2702701 62.9676184,86.1874746 C62.9177786,90.8708035 62.9281113,95.5553337 62.9609326,100.239864 C62.9664028,101.041742 62.7743373,101.456797 61.8991023,101.333061 C61.7538376,101.312639 61.6037105,101.329457 61.4554067,101.330658 C58.5756403,101.343873 58.5756403,101.343873 57.6335471,98.8787733" id="Fill-64" fill="#FCFCFC"></path>
                <path d="M116.201474,81.3595077 C116.201474,84.3516166 116.201474,84.3516166 118.973028,84.3516166 C119.413504,84.3516166 119.854584,84.3417862 120.294455,84.3534598 C121.23885,84.37865 121.864217,83.8600997 122.302276,83.0890326 C123.279902,81.3687236 122.317381,79.1188052 120.390526,78.806692 C119.05641,78.5898102 117.571844,78.3440517 116.382136,78.9394015 C115.810545,79.2250957 116.292107,80.6056437 116.201474,81.3595077 M107.025197,86.4811134 C107.025197,82.0433305 107.020364,77.606162 107.032448,73.1683792 C107.033656,72.6854639 106.770821,72.0268313 107.721258,72.0563223 C113.104851,72.2246668 118.512613,71.6434481 123.871433,72.3997697 C130.844727,73.3840322 134.3208,81.1917776 130.288241,86.7889258 C128.272566,89.5881144 125.343311,90.7419502 121.976602,90.7831147 C120.45699,90.802161 118.934962,90.8365672 117.418372,90.7683692 C116.494521,90.7272047 116.145282,90.9508449 116.176701,91.9848735 C116.257063,94.6249334 116.171263,97.2699085 116.222018,99.9118117 C116.238332,100.753534 116.014166,101.015267 115.167051,100.993763 C112.81543,100.934167 110.460183,100.92065 108.109167,100.998064 C107.136374,101.030627 107.000424,100.653388 107.007675,99.7938476 C107.045137,95.3566791 107.025197,90.9188963 107.025197,86.4811134" id="Fill-66" fill="#FDFDFD"></path>
                <path d="M41.0015851,135.257365 C41.0875584,132.233736 44.352633,128.915447 47.1572729,129.001644 C49.7536663,129.080506 52.0800399,131.424338 51.9978877,133.876375 C51.8928092,136.975809 48.8576335,140.047733 45.9485521,139.999438 C43.2343434,139.9542 40.9308959,137.746082 41.0015851,135.257365" id="Fill-68" fill="#FCFCFC"></path>
                <path d="M33.765301,129 C31.2926238,129.014364 28.97809,126.637205 29.0001565,124.105708 C29.0246749,121.283105 32.4082094,117.996865 35.2866656,118 C37.6385899,118.002512 40.0303565,120.554085 39.9997086,123.027862 C39.9647699,125.812821 36.6560164,128.982995 33.765301,129" id="Fill-70" fill="#FBFBFB"></path>
                <path d="M107.309938,24.9998323 C105.700641,24.6634755 104.025873,23.7270483 102.2453,23.1172107 C101.984001,23.0274748 101.955358,22.7546046 102.048303,22.4988269 C102.430606,21.4421414 102.818755,20.3866768 103.205734,19.3318226 C103.380518,18.8538418 103.711964,18.9972971 104.023535,19.1206076 C105.561515,19.7292243 107.124047,20.2816797 108.623447,20.9812531 C109.497366,21.3890324 110.271325,22.0391595 109.908312,23.2802003 C109.556991,24.4821724 108.743282,25.0108204 107.309938,24.9998323" id="Fill-72" fill="#F9F8F8"></path>
                <path d="M21.0012777,111.178097 C20.9763841,110.13738 21.3154114,109.210948 22.0029492,108.48816 C23.5759882,106.834077 25.4803493,105.865092 27.779452,106.015242 C29.5166703,106.128311 30.4578858,107.322217 31.162612,108.835268 C32.4256664,111.547697 32.45056,111.533107 29.9025212,112.763487 C27.8665796,113.746454 25.836565,114.743402 23.7935109,115.711171 C23.4568545,115.871048 23.0798941,116.301438 22.7153806,115.654637 C21.9217486,114.247968 21.083071,112.868045 21.0012777,111.178097" id="Fill-74" fill="#FBFBFB"></path>
                <path d="M149.29772,74.0888312 C150.317748,73.7432626 150.597147,74.4487487 150.66177,75.4639312 C150.753636,76.9101776 150.945604,78.3516411 150.997556,79.7984853 C151.03557,80.8429634 150.635794,81.7529209 149.399723,81.9567944 C148.118668,82.1678423 147.129684,81.5944855 146.729275,80.4824481 C146.081779,78.6852523 146.179347,76.7684825 146.003851,74.8977487 C145.954433,74.3734171 146.390955,74.4086914 146.720405,74.3662427 C147.480041,74.2675942 148.244746,74.200035 149.29772,74.0888312" id="Fill-76" fill="#FAFAFA"></path>
                <path d="M22.4675955,73.0150936 C23.1417292,72.908601 23.0040216,73.3881154 22.9533175,73.7468589 C22.8115766,74.7493179 22.532128,75.7452326 22.5125378,76.7476915 C22.4866096,78.0850967 22.1034481,78.2974871 20.9908394,77.6400882 C19.6978856,76.8761966 18.3190805,76.2669871 17.0065364,75.5352219 C16.6314415,75.326401 15.9694077,75.2871356 16.0010977,74.6886349 C16.0391258,73.9687682 16.7322735,74.2507656 17.1246539,74.1579563 C18.8969917,73.7397197 20.6854626,73.3893053 22.4675955,73.0150936" id="Fill-80" fill="#FAFAFA"></path>
                <path d="M143.085344,94.1878519 C143.226392,93.0825007 143.401843,91.8700487 143.527984,90.6529401 C143.595069,90.0091706 143.789441,89.8380419 144.402945,90.1546881 C146.094383,91.0277933 147.807036,91.8589894 149.515102,92.6983345 C149.775985,92.8263899 150.039734,92.9509529 149.995011,93.2937922 C149.945702,93.6715557 149.595947,93.6273184 149.342518,93.6843612 C147.4418,94.1133469 145.537642,94.5248705 143.638645,94.9614231 C143.001058,95.1075227 142.894412,94.836278 143.085344,94.1878519" id="Fill-82" fill="#F5F4F3"></path>
                <path d="M147.986363,65.1262358 C148.097923,66.7836047 147.516957,67.513544 146.539129,67.8485029 C145.377807,68.2460649 144.362792,67.8517299 143.715987,66.7765053 C142.835089,65.3114635 142.619284,63.5618035 142.049901,61.9599384 C141.912737,61.5752842 142.068189,61.3823117 142.395554,61.2667864 C142.535157,61.2170912 142.663177,61.121573 142.804608,61.0944665 C144.027502,60.8582527 145.642381,59.437743 146.290405,60.2464203 C147.3993,61.6301426 147.713254,63.7141162 147.986363,65.1262358" id="Fill-84" fill="#F9F8F8"></path>
                <path d="M116.110416,81.8951106 C116.206665,81.1135425 115.695261,79.6822601 116.302272,79.3860668 C117.565701,78.7688383 119.14226,79.0236282 120.559046,79.2484803 C122.6053,79.5720635 123.627465,81.9046652 122.589258,83.6881946 C122.124055,84.487598 121.459937,85.0252048 120.457022,84.9990888 C119.989893,84.9869863 119.521481,84.9971779 119.053711,84.9971779 C116.110416,84.9971779 116.110416,84.9971779 116.110416,81.8951106" id="Fill-86" fill="#194481"></path>
            </g>
        </g>
    </g>
</svg>