<?xml version="1.0" encoding="UTF-8"?>
<svg width="55px" height="58px" viewBox="0 0 55 58" version="1.1" xmlns="http://www.w3.org/2000/svg" xmlns:xlink="http://www.w3.org/1999/xlink">
    <title>prescription copy</title>
    <g id="Home-Page-Final" stroke="none" stroke-width="1" fill="none" fill-rule="evenodd">
        <g id="Home-Page-Option-&quot;2&quot;-V.3" transform="translate(-631.000000, -1392.000000)" fill="#194481" fill-rule="nonzero">
            <g id="prescription-copy" transform="translate(631.000000, 1392.000000)">
                <path d="M53,55.7990034 C53,55.9340675 52.8880712,56.0435586 52.75,56.0435586 L33,56.0435586 L33,58 L52.75,58 C53.992041,57.998585 54.9985535,57.0139937 55,55.7990034 L55,14 L53,14 L53,55.7990034 Z" id="Path"></path>
                <path d="M52.8522727,0 L15.1477273,0 C13.9621427,0.00139391728 13.0013808,0.97130592 13,2.16818182 L13,19.2727273 L14.9090909,19.2727273 L14.9090909,2.16818182 C14.9090909,2.0351314 15.015932,1.92727273 15.1477273,1.92727273 L22.5454545,1.92727273 L22.5454545,4.81818182 L17.7727273,4.81818182 C17.2455464,4.81818182 16.8181818,5.24961651 16.8181818,5.78181818 L16.8181818,19.2727273 L18.7272727,19.2727273 L18.7272727,6.74545455 L22.5454545,6.74545455 L22.5454545,7.46818182 C22.5468353,8.66505772 23.5075972,9.63496972 24.6931818,9.63636364 L43.3068182,9.63636364 C44.4924028,9.63496972 45.4531647,8.66505772 45.4545455,7.46818182 L45.4545455,6.74545455 L49.2727273,6.74545455 L49.2727273,51.0727273 L35.9090909,51.0727273 L35.9090909,53 L50.2272727,53 C50.7544536,53 51.1818182,52.5685653 51.1818182,52.0363636 L51.1818182,5.78181818 C51.1818182,5.24961651 50.7544536,4.81818182 50.2272727,4.81818182 L45.4545455,4.81818182 L45.4545455,1.92727273 L52.8522727,1.92727273 C52.984068,1.92727273 53.0909091,2.0351314 53.0909091,2.16818182 L53.0909091,12.5272727 L55,12.5272727 L55,2.16818182 C54.9986192,0.97130592 54.0378573,0.00139391728 52.8522727,0 Z M43.5454545,7.46818182 C43.5454545,7.60123224 43.4386134,7.70909091 43.3068182,7.70909091 L24.6931818,7.70909091 C24.5613866,7.70909091 24.4545455,7.60123224 24.4545455,7.46818182 L24.4545455,1.92727273 L43.5454545,1.92727273 L43.5454545,7.46818182 Z" id="Shape"></path>
                <g id="Group" transform="translate(0.000000, 21.000000)">
                    <path d="M13.5882353,17.5263158 L9.70588235,17.5263158 C9.16984127,17.5263158 8.73529412,17.9622491 8.73529412,18.5 L8.73529412,21.4210526 L5.82352941,21.4210526 C5.28748833,21.4210526 4.85294118,21.8569859 4.85294118,22.3947368 L4.85294118,26.2894737 C4.85294118,26.8272246 5.28748833,27.2631579 5.82352941,27.2631579 L8.73529412,27.2631579 L8.73529412,30.1842105 C8.73529412,30.7219615 9.16984127,31.1578947 9.70588235,31.1578947 L13.5882353,31.1578947 C14.1242764,31.1578947 14.5588235,30.7219615 14.5588235,30.1842105 L14.5588235,27.2631579 L17.4705882,27.2631579 C18.0066293,27.2631579 18.4411765,26.8272246 18.4411765,26.2894737 L18.4411765,22.3947368 C18.4411765,21.8569859 18.0066293,21.4210526 17.4705882,21.4210526 L14.5588235,21.4210526 L14.5588235,18.5 C14.5588235,17.9622491 14.1242764,17.5263158 13.5882353,17.5263158 Z M16.5,23.3684211 L16.5,25.3157895 L13.5882353,25.3157895 C13.0521942,25.3157895 12.6176471,25.7517227 12.6176471,26.2894737 L12.6176471,29.2105263 L10.6764706,29.2105263 L10.6764706,26.2894737 C10.6764706,25.7517227 10.2419234,25.3157895 9.70588235,25.3157895 L6.79411765,25.3157895 L6.79411765,23.3684211 L9.70588235,23.3684211 C10.2419234,23.3684211 10.6764706,22.9324878 10.6764706,22.3947368 L10.6764706,19.4736842 L12.6176471,19.4736842 L12.6176471,22.3947368 C12.6176471,22.9324878 13.0521942,23.3684211 13.5882353,23.3684211 L16.5,23.3684211 Z" id="Shape"></path>
                    <path d="M26.2058824,23.3684211 C25.1985052,23.367204 24.2036184,23.5921003 23.2941176,24.0266316 L23.2941176,14.6052632 C23.294127,14.3470224 23.1918751,14.0993552 23.0098566,13.9167467 L21.3529412,12.2546678 L21.3529412,9.72308882 C22.4575018,9.59781016 23.2926442,8.66119504 23.2941176,7.54605263 L23.2941176,2.19078947 C23.2927137,0.981433738 22.3158045,0.00140845167 21.1102941,0 L2.18382353,0 C0.978313121,0.00140845167 0.00140397329,0.981433738 0,2.19078947 L0,7.54605263 C0.00135018978,8.66128803 0.83652391,9.598043 1.94117647,9.72333224 L1.94117647,12.2549112 L0.284261029,13.9167467 C0.102242578,14.0993552 0,14.3470224 0,14.6052632 L0,19.4736842 L1.94117647,19.4736842 L1.94117647,15.0084901 L3.31370956,13.6315789 L16.5,13.6315789 L16.5,11.6842105 L3.88235294,11.6842105 L3.88235294,9.73684211 L19.4117647,9.73684211 L19.4117647,12.6578947 C19.4117553,12.9161354 19.5140073,13.1638027 19.6960257,13.3464112 L21.3529412,15.0084901 L21.3529412,25.4187566 C20.0911804,26.7089544 19.3929105,28.4497212 19.4121659,30.2570536 C19.4314213,32.0643859 20.1666199,33.7897829 21.4555809,35.0526316 L2.18382353,35.0526316 C2.04981326,35.0526316 1.94117647,34.9436483 1.94117647,34.8092105 L1.94117647,21.4210526 L0,21.4210526 L0,34.8092105 C0.00140397329,36.0185663 0.978313121,36.9985915 2.18382353,37 L26.2058824,37 C29.9581699,37 33,33.9484671 33,30.1842105 C33,26.4199539 29.9581699,23.3684211 26.2058824,23.3684211 L26.2058824,23.3684211 Z M2.18382353,7.78947368 C2.04981326,7.78947368 1.94117647,7.68049037 1.94117647,7.54605263 L1.94117647,2.19078947 C1.94117647,2.05635174 2.04981326,1.94736842 2.18382353,1.94736842 L21.1102941,1.94736842 C21.2443044,1.94736842 21.3529412,2.05635174 21.3529412,2.19078947 L21.3529412,7.54605263 C21.3529412,7.68049037 21.2443044,7.78947368 21.1102941,7.78947368 L2.18382353,7.78947368 Z M21.3529409,30.1842105 C21.3524352,28.790964 21.9482478,27.4645593 22.988989,26.542023 L27.7429301,34.8023947 C26.2628213,35.2976878 24.6356086,35.0490207 23.3696406,34.134078 C22.1036726,33.2191354 21.3532995,31.7494695 21.3529409,30.1842105 L21.3529409,30.1842105 Z M29.4227757,33.826398 L24.6688346,25.5660263 C26.8559998,24.8325147 29.2556187,25.7449118 30.4086882,27.7484668 C31.5617577,29.7520218 31.1495844,32.2929784 29.4227757,33.826398 L29.4227757,33.826398 Z" id="Shape"></path>
                </g>
                <path d="M40,19 C40,15.1340068 36.8659932,12 33,12 C29.1340068,12 26,15.1340068 26,19 C26,22.8659932 29.1340068,26 33,26 C36.8641657,25.9955914 39.9955914,22.8641657 40,19 Z M28,19 C28,16.2385763 30.2385763,14 33,14 C35.7614237,14 38,16.2385763 38,19 C38,21.7614237 35.7614237,24 33,24 C30.2398613,23.9969001 28.0030999,21.7601387 28,19 L28,19 Z" id="Shape"></path>
                <polygon id="Path" points="34 21 34 19 36 19 36 17 34 17 34 15 32 15 32 17 30 17 30 19 32 19 32 21"></polygon>
                <polygon id="Path" points="25 29 40 29 40 31 25 31"></polygon>
                <polygon id="Path" points="42 29 47 29 47 31 42 31"></polygon>
                <polygon id="Path" points="27 39 40 39 40 41 27 41"></polygon>
                <polygon id="Path" points="42 39 47 39 47 41 42 41"></polygon>
                <polygon id="Path" points="25 34 31 34 31 36 25 36"></polygon>
                <polygon id="Path" points="34 34 48 34 48 36 34 36"></polygon>
                <polygon id="Path" points="26 4 28 4 28 6 26 6"></polygon>
                <polygon id="Path" points="39 4 41 4 41 6 39 6"></polygon>
                <polygon id="Path" points="29 4 37 4 37 6 29 6"></polygon>
                <polygon id="Path" points="34 43 48 43 48 45 34 45"></polygon>
            </g>
        </g>
    </g>
</svg>