<?xml version="1.0" encoding="UTF-8"?>
<svg width="60px" height="60px" viewBox="0 0 60 60" version="1.1" xmlns="http://www.w3.org/2000/svg" xmlns:xlink="http://www.w3.org/1999/xlink">
    <title>hospital copy</title>
    <g id="Home-Page-Final" stroke="none" stroke-width="1" fill="none" fill-rule="evenodd">
        <g id="Home-Page-Option-&quot;2&quot;-V.3" transform="translate(-509.000000, -1116.000000)" fill="#FFFFFF" fill-rule="nonzero">
            <g id="hospital-copy" transform="translate(509.000000, 1116.000000)">
                <path d="M59.0322581,55.1612903 L55.1612903,55.1612903 L55.1612903,36.7741935 L57.0967742,36.7741935 C57.6312433,36.7741935 58.0645161,36.3409207 58.0645161,35.8064516 L58.0645161,31.9354839 C58.0645161,31.4010148 57.6312433,30.9677419 57.0967742,30.9677419 L50.3225806,30.9677419 L50.3225806,15.483871 L52.2580645,15.483871 C52.7925336,15.483871 53.2258065,15.0505981 53.2258065,14.516129 L53.2258065,10.6451613 C53.2258065,10.1106922 52.7925336,9.67741935 52.2580645,9.67741935 L41.6129032,9.67741935 L41.6129032,0.967741935 C41.6129032,0.433272823 41.1796304,0 40.6451613,0 L19.3548387,0 C18.8203696,0 18.3870968,0.433272823 18.3870968,0.967741935 L18.3870968,9.67741935 L7.74193548,9.67741935 C7.20746637,9.67741935 6.77419355,10.1106922 6.77419355,10.6451613 L6.77419355,14.516129 C6.77419355,15.0505981 7.20746637,15.483871 7.74193548,15.483871 L9.67741935,15.483871 L9.67741935,30.9677419 L2.90322581,30.9677419 C2.36875669,30.9677419 1.93548387,31.4010148 1.93548387,31.9354839 L1.93548387,35.8064516 C1.93548387,36.3409207 2.36875669,36.7741935 2.90322581,36.7741935 L4.83870968,36.7741935 L4.83870968,55.1612903 L0.967741935,55.1612903 C0.433272823,55.1612903 0,55.5945631 0,56.1290323 L0,59.0322581 C0,59.5667272 0.433272823,60 0.967741935,60 L59.0322581,60 C59.5667272,60 60,59.5667272 60,59.0322581 L60,56.1290323 C60,55.5945631 59.5667272,55.1612903 59.0322581,55.1612903 Z M41.6129032,11.6129032 L51.2903226,11.6129032 L51.2903226,13.5483871 L41.6129032,13.5483871 L41.6129032,11.6129032 Z M20.3225806,1.93548387 L39.6774194,1.93548387 L39.6774194,17.4193548 L20.3225806,17.4193548 L20.3225806,1.93548387 Z M19.3548387,19.3548387 L40.6451613,19.3548387 C41.1796304,19.3548387 41.6129032,18.9215659 41.6129032,18.3870968 L41.6129032,15.483871 L48.3870968,15.483871 L48.3870968,30.9677419 L11.6129032,30.9677419 L11.6129032,15.483871 L18.3870968,15.483871 L18.3870968,18.3870968 C18.3870968,18.9215659 18.8203696,19.3548387 19.3548387,19.3548387 Z M8.70967742,13.5483871 L8.70967742,11.6129032 L18.3870968,11.6129032 L18.3870968,13.5483871 L8.70967742,13.5483871 Z M3.87096774,34.8387097 L3.87096774,32.9032258 L56.1290323,32.9032258 L56.1290323,34.8387097 L3.87096774,34.8387097 Z M39.6774194,52.2580645 L38.7096774,52.2580645 L38.7096774,40.6451613 C38.7096774,40.1106922 38.2764046,39.6774194 37.7419355,39.6774194 L22.2580645,39.6774194 C21.7235954,39.6774194 21.2903226,40.1106922 21.2903226,40.6451613 L21.2903226,52.2580645 L20.3225806,52.2580645 C19.7881115,52.2580645 19.3548387,52.6913373 19.3548387,53.2258065 L19.3548387,55.1612903 L6.77419355,55.1612903 L6.77419355,36.7741935 L53.2258065,36.7741935 L53.2258065,55.1612903 L40.6451613,55.1612903 L40.6451613,53.2258065 C40.6451613,52.6913373 40.2118885,52.2580645 39.6774194,52.2580645 Z M38.7096774,54.1935484 L38.7096774,55.1612903 L21.2903226,55.1612903 L21.2903226,54.1935484 L38.7096774,54.1935484 Z M23.2258065,52.2580645 L23.2258065,41.6129032 L29.0322581,41.6129032 L29.0322581,52.2580645 L23.2258065,52.2580645 Z M30.9677419,52.2580645 L30.9677419,41.6129032 L36.7741935,41.6129032 L36.7741935,52.2580645 L30.9677419,52.2580645 Z M58.0645161,58.0645161 L1.93548387,58.0645161 L1.93548387,57.0967742 L58.0645161,57.0967742 L58.0645161,58.0645161 Z" id="Shape"></path>
                <path d="M50,46 L50,40 C50,39.4477153 49.5522847,39 49,39 L43,39 C42.4477153,39 42,39.4477153 42,40 L42,46 C41.4477153,46 41,46.4477153 41,47 C41,47.5522847 41.4477153,48 42,48 L50,48 C50.5522847,48 51,47.5522847 51,47 C51,46.4477153 50.5522847,46 50,46 Z M48,46 L44,46 L44,41 L48,41 L48,46 Z" id="Shape"></path>
                <path d="M18,46 L18,40 C18,39.4477153 17.5522847,39 17,39 L11,39 C10.4477153,39 10,39.4477153 10,40 L10,46 C9.44771525,46 9,46.4477153 9,47 C9,47.5522847 9.44771525,48 10,48 L18,48 C18.5522847,48 19,47.5522847 19,47 C19,46.4477153 18.5522847,46 18,46 Z M16,46 L12,46 L12,41 L16,41 L16,46 Z" id="Shape"></path>
                <path d="M23,29 L23,23 C23,22.4477153 22.5522847,22 22,22 L16,22 C15.4477153,22 15,22.4477153 15,23 L15,29 C14.4477153,29 14,29.4477153 14,30 C14,30.5522847 14.4477153,31 15,31 L23,31 C23.5522847,31 24,30.5522847 24,30 C24,29.4477153 23.5522847,29 23,29 Z M21,29 L17,29 L17,24 L21,24 L21,29 Z" id="Shape"></path>
                <path d="M34,29 L34,23 C34,22.4477153 33.5522847,22 33,22 L27,22 C26.4477153,22 26,22.4477153 26,23 L26,29 C25.4477153,29 25,29.4477153 25,30 C25,30.5522847 25.4477153,31 26,31 L34,31 C34.5522847,31 35,30.5522847 35,30 C35,29.4477153 34.5522847,29 34,29 Z M32,29 L28,29 L28,24 L32,24 L32,29 Z" id="Shape"></path>
                <path d="M45,29 L45,23 C45,22.4477153 44.5522847,22 44,22 L38,22 C37.4477153,22 37,22.4477153 37,23 L37,29 C36.4477153,29 36,29.4477153 36,30 C36,30.5522847 36.4477153,31 37,31 L45,31 C45.5522847,31 46,30.5522847 46,30 C46,29.4477153 45.5522847,29 45,29 Z M43,29 L39,29 L39,24 L43,24 L43,29 Z" id="Shape"></path>
                <path d="M24,13 L27,13 L27,16 C27,16.5522847 27.4477153,17 28,17 L32,17 C32.5522847,17 33,16.5522847 33,16 L33,13 L36,13 C36.5522847,13 37,12.5522847 37,12 L37,8 C37,7.44771525 36.5522847,7 36,7 L33,7 L33,4 C33,3.44771525 32.5522847,3 32,3 L28,3 C27.4477153,3 27,3.44771525 27,4 L27,7 L24,7 C23.4477153,7 23,7.44771525 23,8 L23,12 C23,12.5522847 23.4477153,13 24,13 Z M25,9 L28,9 C28.5522847,9 29,8.55228475 29,8 L29,5 L31,5 L31,8 C31,8.55228475 31.4477153,9 32,9 L35,9 L35,11 L32,11 C31.4477153,11 31,11.4477153 31,12 L31,15 L29,15 L29,12 C29,11.4477153 28.5522847,11 28,11 L25,11 L25,9 Z" id="Shape"></path>
            </g>
        </g>
    </g>
</svg>