<?xml version="1.0" encoding="UTF-8"?>
<svg width="61px" height="61px" viewBox="0 0 61 61" version="1.1" xmlns="http://www.w3.org/2000/svg" xmlns:xlink="http://www.w3.org/1999/xlink">
    <title>blog</title>
    <g id="Home-Page-Option-&quot;2&quot;" stroke="none" stroke-width="1" fill="none" fill-rule="evenodd">
        <g id="Home-Page--Copy-5" transform="translate(-507.000000, -5076.000000)" fill="#FFFFFF" fill-rule="nonzero">
            <g id="blog" transform="translate(507.000000, 5076.000000)">
                <path d="M59.9833333,0 L1.01666667,0 C0.455177171,0 0,0.455177171 0,1.01666667 L0,59.9833333 C0,60.5448228 0.455177171,61 1.01666667,61 L59.9833333,61 C60.5448228,61 61,60.5448228 61,59.9833333 L61,1.01666667 C61,0.455177171 60.5448228,0 59.9833333,0 Z M2.03333333,2.03333333 L58.9666667,2.03333333 L58.9666667,8.13333333 L2.03333333,8.13333333 L2.03333333,2.03333333 Z M2.03333333,58.9666667 L2.03333333,10.1666667 L58.9666667,10.1666667 L58.9666667,58.9666667 L2.03333333,58.9666667 Z" id="Shape"></path>
                <circle id="Oval" cx="13" cy="5" r="1"></circle>
                <circle id="Oval" cx="9" cy="5" r="1"></circle>
                <circle id="Oval" cx="5" cy="5" r="1"></circle>
                <path d="M56,4 L54,4 C53.4477153,4 53,4.44771525 53,5 C53,5.55228475 53.4477153,6 54,6 L56,6 C56.5522847,6 57,5.55228475 57,5 C57,4.44771525 56.5522847,4 56,4 Z" id="Path"></path>
                <path d="M53.9791667,14 L7.02083333,14 C6.45704265,14 6,14.4680659 6,15.0454545 L6,35.9545455 C6,36.5319341 6.45704265,37 7.02083333,37 L53.9791667,37 C54.5429573,37 55,36.5319341 55,35.9545455 L55,15.0454545 C55,14.4680659 54.5429573,14 53.9791667,14 Z M13.5687135,34.9090909 L17.4750599,30.9085284 L21.9539661,32.7434318 C22.3331225,32.8987514 22.76618,32.8077173 23.0549349,32.5119943 L28.5882344,26.8452386 L37.0792708,32.6425455 C37.3589662,32.833547 37.712554,32.8712786 38.0246901,32.7434318 L42.554638,30.88775 L47.1362656,34.9090909 L13.5687135,34.9090909 Z M52.9583333,34.9090909 L50.2735417,34.9090909 L43.4144349,28.8880568 C43.1258736,28.6347224 42.7237774,28.5665432 42.370888,28.7111136 L37.7652708,30.597767 L29.0243854,24.6301818 C28.6194719,24.3537238 28.0803039,24.4084214 27.7362214,24.7608636 L22.0871849,30.5461477 L17.6082786,28.7112443 C17.2291223,28.5559247 16.7960648,28.6469589 16.5073099,28.9426818 L10.6814141,34.9090909 L8.04166667,34.9090909 L8.04166667,16.0909091 L52.9583333,16.0909091 L52.9583333,34.9090909 Z" id="Shape"></path>
                <path d="M7,42 L19,42 C19.5522847,42 20,41.5522847 20,41 C20,40.4477153 19.5522847,40 19,40 L7,40 C6.44771525,40 6,40.4477153 6,41 C6,41.5522847 6.44771525,42 7,42 Z" id="Path"></path>
                <path d="M37,27 C38.6568542,27 40,25.6568542 40,24 C40,22.3431458 38.6568542,21 37,21 C35.3431458,21 34,22.3431458 34,24 C34.00186,25.6560832 35.3439168,26.99814 37,27 L37,27 Z M37,23 C37.5522847,23 38,23.4477153 38,24 C38,24.5522847 37.5522847,25 37,25 C36.4477153,25 36,24.5522847 36,24 C36.00062,23.4479723 36.4479723,23.00062 37,23 Z" id="Shape"></path>
                <path d="M27.9545455,47 L7.04545455,47 C6.46806594,47 6,47.4477153 6,48 C6,48.5522847 6.46806594,49 7.04545455,49 L27.9545455,49 C28.5319341,49 29,48.5522847 29,48 C29,47.4477153 28.5319341,47 27.9545455,47 Z" id="Path"></path>
                <path d="M27.9545455,53 L7.04545455,53 C6.46806594,53 6,53.4477153 6,54 C6,54.5522847 6.46806594,55 7.04545455,55 L27.9545455,55 C28.5319341,55 29,54.5522847 29,54 C29,53.4477153 28.5319341,53 27.9545455,53 Z" id="Path"></path>
                <path d="M53.9545455,47 L33.0454545,47 C32.4680659,47 32,47.4477153 32,48 C32,48.5522847 32.4680659,49 33.0454545,49 L53.9545455,49 C54.5319341,49 55,48.5522847 55,48 C55,47.4477153 54.5319341,47 53.9545455,47 Z" id="Path"></path>
                <path d="M53.9545455,53 L33.0454545,53 C32.4680659,53 32,53.4477153 32,54 C32,54.5522847 32.4680659,55 33.0454545,55 L53.9545455,55 C54.5319341,55 55,54.5522847 55,54 C55,53.4477153 54.5319341,53 53.9545455,53 Z" id="Path"></path>
            </g>
        </g>
    </g>
</svg>