<?xml version="1.0" encoding="UTF-8"?>
<svg width="200px" height="32px" viewBox="0 0 200 32" version="1.1" xmlns="http://www.w3.org/2000/svg" xmlns:xlink="http://www.w3.org/1999/xlink">
    <title>logo-azierta-white</title>
    <g id="Home-Page-Final" stroke="none" stroke-width="1" fill="none" fill-rule="evenodd">
        <g id="Home-Page--Copy-5" transform="translate(-527.000000, -5426.000000)" fill="#FF495C" fill-rule="nonzero">
            <g id="logo-azierta-white" transform="translate(527.000000, 5426.000000)">
                <path d="M100.032227,10 C93.4670366,10 89,14.440367 89,20.9663609 C89,27.4923547 93.6700838,32 100.506003,32 C104.160852,32 107.138876,30.7889908 109.101665,28.6360856 C109.169347,28.5688073 109.169347,28.5015291 109.23703,28.4342508 C109.440077,28.1651376 109.507759,27.8960245 109.507759,27.559633 C109.507759,26.6850153 108.830935,26.0122324 107.951065,26.0122324 C107.477288,26.0122324 107.071194,26.2140673 106.800464,26.5504587 C106.800464,26.5504587 106.732782,26.5504587 106.732782,26.617737 C105.311452,28.1651376 103.145616,28.9724771 100.438321,28.9724771 C95.8359197,28.9724771 92.6548482,26.3486239 92.0457068,22.3792049 L110.522995,22.3792049 C110.793724,22.3792049 110.996771,22.17737 110.996771,21.9082569 C111.132136,14.3730887 107.003511,10 100.032227,10 Z M92.1810715,19.5535168 C92.7225305,15.5840979 95.7682373,12.9602446 100.099909,12.9602446 C104.431581,12.9602446 107.409606,15.5840979 108.018747,19.5535168 L92.1810715,19.5535168 Z" id="Shape"></path>
                <path d="M20.6746988,10.0660661 C19.9457831,10.0660661 19.2831325,10.6606607 19.2831325,11.3873874 C19.2831325,11.3873874 19.2831325,11.3873874 19.2831325,11.3873874 L19.3493976,13.8318318 C17.626506,11.0570571 14.4457831,10 10.6024096,10 C4.24096386,10 0,14.4264264 0,20.966967 C0,27.5075075 4.1746988,32 10.5361446,32 C14.3795181,32 17.4939759,30.8768769 19.2168675,28.1681682 C19.2168675,28.1681682 19.2168675,30.7447447 19.2168675,30.7447447 C19.2831325,31.4714715 19.8795181,32 20.6084337,32 C21.4036145,32 22,31.4054054 22,30.6126126 C22,30.6126126 22,30.6126126 22,30.6126126 C22,30.6126126 22,11.4534535 22,11.3873874 C22,10.6606607 21.4036145,10.0660661 20.6746988,10.0660661 Z M10.8674699,28.960961 C6.09638554,28.960961 2.91566265,25.7237237 2.91566265,21.033033 C2.91566265,16.2762763 6.09638554,13.1051051 10.8674699,13.1051051 C15.6385542,13.1051051 18.9518072,16.2762763 19.0180723,21.033033 C18.8855422,25.7897898 15.5722892,28.960961 10.8674699,28.960961 Z" id="Shape"></path>
                <path d="M198.674699,10.0660661 C197.945783,10.0660661 197.283133,10.6606607 197.283133,11.3873874 C197.283133,11.3873874 197.283133,11.3873874 197.283133,11.3873874 L197.349398,13.8318318 C195.626506,11.0570571 192.445783,10 188.60241,10 C182.240964,10 178,14.4264264 178,20.966967 C178,27.5075075 182.174699,32 188.536145,32 C192.379518,32 195.493976,30.8768769 197.216867,28.1681682 C197.216867,28.1681682 197.216867,30.7447447 197.216867,30.7447447 C197.283133,31.4714715 197.879518,32 198.608434,32 C199.403614,32 200,31.4054054 200,30.6126126 C200,30.6126126 200,30.6126126 200,30.6126126 C200,30.6126126 200,11.4534535 200,11.3873874 C200,10.6606607 199.403614,10.0660661 198.674699,10.0660661 Z M188.801205,28.960961 C184.03012,28.960961 180.849398,25.7237237 180.849398,21.033033 C180.849398,16.2762763 184.03012,13.1051051 188.801205,13.1051051 C193.572289,13.1051051 196.885542,16.2762763 196.951807,21.033033 C196.819277,25.7897898 193.572289,28.960961 188.801205,28.960961 Z" id="Shape"></path>
                <path d="M74,11.4622356 C74,10.6646526 73.3181818,10 72.5,10 C71.6818182,10 71,10.6646526 71,11.4622356 C71,11.4622356 71,11.4622356 71,11.5287009 L71,30.4712991 C71,30.4712991 71,30.4712991 71,30.5377644 C71,30.5377644 71,30.5377644 71,30.6042296 L71,30.6042296 C71,30.6042296 71,30.6042296 71,30.6042296 C71.0681818,31.4018127 71.6818182,32 72.5,32 C73.3181818,32 74,31.4018127 74,30.6042296 C74,30.6042296 74,30.6042296 74,30.6042296 L74,30.6042296 C74,30.6042296 74,30.6042296 74,30.5377644 C74,30.5377644 74,30.5377644 74,30.4712991 L74,11.4622356 C74,11.4622356 74,11.4622356 74,11.4622356 Z" id="Path"></path>
                <path d="M137.942994,10.5963855 C137.942994,10.5963855 137.942994,10.5963855 137.942994,10.5963855 C137.17341,10.3975904 135.634244,10 134.095077,10 C131.506478,10 129.827387,10.7951807 128.358182,12.3855422 L128.358182,11.5903614 C128.358182,10.7289157 127.588599,10 126.679091,10 C125.839546,10 125.139924,10.5963855 125,11.3915663 C125,11.4578313 125,11.4578313 125,11.5240964 L125,30.4096386 C125,30.4096386 125,30.4759036 125,30.4759036 C125.069962,31.3373494 125.769583,32 126.679091,32 C127.588599,32 128.28822,31.3373494 128.358182,30.4759036 C128.358182,30.4759036 128.358182,30.4759036 128.358182,30.4096386 L128.358182,30.3433735 C128.358182,30.3433735 128.358182,30.3433735 128.358182,30.3433735 C128.358182,30.3433735 128.358182,30.3433735 128.358182,30.3433735 L128.358182,18.6807229 C128.358182,16.9578313 129.057803,15.3012048 130.387084,14.2409639 C131.226629,13.5783133 132.276061,13.1144578 133.465418,13.1144578 C134.934622,13.1144578 136.123978,13.313253 136.8236,13.5783133 C136.8236,13.5783133 136.8236,13.5783133 136.8236,13.5783133 C136.963524,13.6445783 137.17341,13.6445783 137.313335,13.6445783 C138.222842,13.6445783 138.992426,12.9156627 138.992426,12.0542169 C139.062388,11.3915663 138.642615,10.8614458 137.942994,10.5963855 Z" id="Path"></path>
                <path d="M163.512864,27.3603412 C163.245345,27.3603412 162.977827,27.4285714 162.777189,27.565032 C162.710309,27.565032 162.710309,27.6332623 162.643429,27.6332623 C162.643429,27.6332623 162.643429,27.6332623 162.643429,27.6332623 C162.643429,27.6332623 162.643429,27.6332623 162.57655,27.6332623 C162.108393,28.0426439 161.172079,28.7249467 160.168886,28.7249467 C158.496897,28.7249467 157.560583,27.4968017 157.560583,23.3347548 L157.560583,12.3496802 L161.305838,12.3496802 C161.305838,12.3496802 161.305838,12.3496802 161.372718,12.3496802 C161.372718,12.3496802 161.372718,12.3496802 161.439597,12.3496802 L161.439597,12.3496802 C161.439597,12.3496802 161.439597,12.3496802 161.439597,12.3496802 C162.175273,12.2814499 162.777189,11.6673774 162.777189,10.9168443 C162.777189,10.1663113 162.242152,9.62046908 161.573357,9.48400853 C161.506477,9.48400853 161.439597,9.48400853 161.439597,9.48400853 L157.560583,9.48400853 L157.560583,1.70575693 C157.560583,1.70575693 157.560583,1.70575693 157.560583,1.63752665 C157.560583,1.63752665 157.560583,1.63752665 157.560583,1.56929638 L157.560583,1.5010661 C157.560583,1.5010661 157.560583,1.43283582 157.560583,1.43283582 C157.426824,0.682302772 156.758029,0 155.955474,0 C155.08604,0 154.417244,0.682302772 154.350364,1.5010661 C154.350364,1.5010661 154.350364,1.56929638 154.350364,1.56929638 L154.350364,9.41577825 L150.53823,9.41577825 C150.53823,9.41577825 150.47135,9.41577825 150.47135,9.41577825 C150.47135,9.41577825 150.47135,9.41577825 150.404471,9.41577825 C149.601916,9.41577825 149,10.098081 149,10.8486141 C149,11.6673774 149.668796,12.2814499 150.404471,12.2814499 C150.404471,12.2814499 150.47135,12.2814499 150.47135,12.2814499 C150.47135,12.2814499 150.47135,12.2814499 150.47135,12.2814499 L154.216605,12.2814499 L154.216605,23.6759062 C154.149726,29.0660981 156.089233,32 159.901368,32 C162.108393,31.9317697 163.780382,30.8400853 164.382298,30.2260128 C164.449177,30.2260128 164.449177,30.1577825 164.449177,30.1577825 C164.783575,29.8848614 164.984214,29.4072495 164.984214,28.9978678 C165.117973,28.1108742 164.382298,27.3603412 163.512864,27.3603412 Z" id="Path"></path>
                <path d="M54.4137931,29.0180723 L42.137931,29.0180723 L54.5517241,10.8614458 C54.8965517,10.3975904 54.6896552,10 54.0689655,10 L37.6551724,10 C37.6551724,10 37.5862069,10 37.5862069,10 C37.5862069,10 37.5172414,10 37.5172414,10 C36.6896552,10 36,10.6626506 36,11.4578313 C36,12.253012 36.6896552,12.9156627 37.5172414,12.9156627 C37.5172414,12.9156627 37.5172414,12.9156627 37.5172414,12.9156627 C37.5172414,12.9156627 37.5172414,12.9156627 37.5172414,12.9156627 L49.2413793,12.9156627 L36.6896552,31.2048193 C36.4137931,31.6686747 36.5517241,32 37.1724138,32 L54.4827586,32 C54.4827586,32 54.5517241,32 54.5517241,32 C55.3793103,31.9337349 56,31.3373494 56,30.5421687 C55.9310345,29.6807229 55.2413793,29.0180723 54.4137931,29.0180723 Z" id="Path"></path>
                <circle id="Oval" cx="73" cy="4" r="3"></circle>
            </g>
        </g>
    </g>
</svg>