<?xml version="1.0" encoding="UTF-8"?>
<svg width="62px" height="57px" viewBox="0 0 62 57" version="1.1" xmlns="http://www.w3.org/2000/svg" xmlns:xlink="http://www.w3.org/1999/xlink">
    <title>newspaper</title>
    <g id="Home-Page-Option-&quot;2&quot;" stroke="none" stroke-width="1" fill="none" fill-rule="evenodd">
        <g id="Home-Page--Copy-5" transform="translate(-507.000000, -4543.000000)" fill="#194481" fill-rule="nonzero">
            <g id="newspaper" transform="translate(507.000000, 4543.000000)">
                <path d="M58.8704834,0 L13.5090485,0 C11.7834626,0 10.3800049,1.39473684 10.3800049,3.10902256 L10.3800049,7.82847747 L3.1295166,7.82847747 C1.40393066,7.82847747 0,9.22321432 0,10.9375 L0,50.9421992 C0,54.2669173 2.71183774,56.974624 6.05421451,56.9985902 L6.06651303,56.9985902 C6.07739258,56.9990602 6.08732602,57 6.09820557,57 L38.2254181,57 C38.7268219,57 39.1336212,56.5963346 39.1336212,56.0977444 C39.1336212,55.5996241 38.7268219,55.1954887 38.2254181,55.1954887 L10.4362946,55.1954887 C11.5237731,54.1010339 12.1964111,52.5982143 12.1964111,50.9421992 L12.1964111,29.8430451 C12.1964111,29.3449249 11.7896118,28.9407894 11.288208,28.9407894 C10.7863312,28.9407894 10.3800049,29.3449249 10.3800049,29.8430451 L10.3800049,50.9421992 C10.3800049,53.2796053 8.47183234,55.1823308 6.12138364,55.1950188 C6.11381528,55.1950188 6.10624692,55.1940789 6.09820557,55.1940789 C3.73735043,55.193609 1.81640625,53.2861842 1.81640625,50.9421992 L1.81640625,10.9375 C1.81640625,10.218515 2.40531918,9.63298875 3.1295166,9.63298875 L10.3800049,9.63298875 L10.3800049,26.474624 C10.3800049,26.9732143 10.7863312,27.3768796 11.288208,27.3768796 C11.7896118,27.3768796 12.1964111,26.9732143 12.1964111,26.474624 L12.1964111,3.10902256 C12.1964111,2.38956764 12.7853241,1.80451128 13.5090485,1.80451128 L58.8704834,1.80451128 C59.5946808,1.80451128 60.1835937,2.38956764 60.1835937,3.10902256 L60.1835937,50.9421992 C60.1835937,53.287594 58.2626496,55.1954887 55.9017944,55.1954887 L41.6160431,55.1954887 C41.1141663,55.1954887 40.70784,55.5996241 40.70784,56.0977444 C40.70784,56.5963346 41.1141663,57 41.6160431,57 L55.9017944,57 C59.2645111,57 62,54.2824248 62,50.9421992 L62,3.10902256 C62,1.39473684 60.5960693,0 58.8704834,0 L58.8704834,0 Z" id="Path"></path>
                <path d="M20.1804962,35 L32.8195036,35 C34.0218244,35 35,34.0218244 35,32.8195036 L35,20.1804964 C35,18.9781756 34.0218244,18 32.8195036,18 L20.1804962,18 C18.9781755,18 18,18.9781756 18,20.1804964 L18,32.8195036 C18,34.0218244 18.9781755,35 20.1804962,35 L20.1804962,35 Z M19.8430786,20.1804964 C19.8430786,19.9942686 19.9942686,19.8430786 20.1804962,19.8430786 L32.8195036,19.8430786 C33.0052513,19.8430786 33.1569214,19.9942686 33.1569214,20.1804964 L33.1569214,32.8195036 C33.1569214,33.0052514 33.0052513,33.1569214 32.8195036,33.1569214 L20.1804962,33.1569214 C19.9942686,33.1569214 19.8430786,33.0052514 19.8430786,32.8195036 L19.8430786,20.1804964 Z" id="Shape"></path>
                <path d="M37.9241292,21 L55.0758708,21 C55.5860671,21 56,20.5526041 56,20 C56,19.4473959 55.5860671,19 55.0758708,19 L37.9241292,19 C37.4139329,19 37,19.4473959 37,20 C37,20.5526041 37.4139329,21 37.9241292,21 L37.9241292,21 Z" id="Path"></path>
                <path d="M37.9241292,29 L55.0758708,29 C55.5860671,29 56,28.5520832 56,28 C56,27.4473957 55.5860671,27 55.0758708,27 L37.9241292,27 C37.4139329,27 37,27.4473957 37,28 C37,28.5520832 37.4139329,29 37.9241292,29 L37.9241292,29 Z" id="Path"></path>
                <path d="M37.9241292,36 L55.0758708,36 C55.5860671,36 56,35.5520833 56,35 C56,34.4473959 55.5860671,34 55.0758708,34 L37.9241292,34 C37.4139329,34 37,34.4473959 37,35 C37,35.5520833 37.4139329,36 37.9241292,36 L37.9241292,36 Z" id="Path"></path>
                <path d="M18.9125361,43 L55.0874639,43 C55.5912599,43 56,42.5526041 56,42 C56,41.4479167 55.5912599,41 55.0874639,41 L18.9125361,41 C18.4087401,41 18,41.4479167 18,42 C18,42.5526041 18.4087401,43 18.9125361,43 Z" id="Path"></path>
                <path d="M18.9125361,51 L55.0874639,51 C55.5912599,51 56,50.5526041 56,50 C56,49.4473957 55.5912599,49 55.0874639,49 L18.9125361,49 C18.4087401,49 18,49.4473957 18,50 C18,50.5526041 18.4087401,51 18.9125361,51 Z" id="Path"></path>
                <path d="M18,14.4389988 L18,5.56100128 C18,5.37852275 18.0914127,5.23936639 18.2742383,5.14396998 C18.4570636,5.04813589 18.6786703,5 18.9381348,5 C19.2848569,5 19.5489382,5.05951339 19.7322253,5.1781026 C19.9145891,5.29669181 20.1168051,5.55224931 20.3384118,5.94389985 L23.1237304,11.0467356 L23.1237304,5.5474357 C23.1237304,5.36495717 23.2151431,5.22842645 23.3979686,5.1369684 C23.5803324,5.04594792 23.801939,5 24.0618652,5 C24.3217912,5 24.5429362,5.04594792 24.7257617,5.1369684 C24.9085872,5.22842645 25,5.36495717 25,5.5474357 L25,14.4389988 C25,14.6127254 24.9058171,14.7492561 24.7183748,14.8494661 C24.5309326,14.9501138 24.312096,15 24.0618652,15 C23.5517081,15 23.190674,14.8131455 22.9792243,14.4389988 L19.8762696,8.93969896 L19.8762696,14.4389988 C19.8762696,14.6127254 19.7825484,14.7492561 19.5951062,14.8494661 C19.4076639,14.9501138 19.1883656,15 18.9381348,15 C18.6786703,15 18.4570636,14.9501138 18.2746999,14.8494661 C18.0914127,14.7492561 18,14.6127254 18,14.4389988 Z" id="Path"></path>
                <path d="M26,14.4389988 L26,5.56100128 C26,5.38771229 26.0872966,5.25118157 26.2623829,5.15053387 C26.436976,5.05032385 26.6421476,5 26.878884,5 L32.3677164,5 C32.572888,5 32.7302191,5.07789258 32.8377368,5.23280238 C32.9457478,5.38771229 33,5.56581478 33,5.76623493 C33,5.98503416 32.9432819,6.1723263 32.8303389,6.32723621 C32.7169026,6.48258358 32.5625308,6.55960091 32.3677164,6.55960091 L28.0043683,6.55960091 L28.0043683,9.29546648 L30.3480588,9.29546648 C30.5428732,9.29546648 30.6972451,9.36635749 30.8106813,9.5077017 C30.9236243,9.64904604 30.9803424,9.81533345 30.9803424,10.0070016 C30.9803424,10.1802906 30.9260903,10.3373884 30.8180794,10.4791704 C30.7100683,10.6205146 30.5537237,10.6909679 30.3480588,10.6909679 L28.0043683,10.6909679 L28.0043683,13.4408368 L32.3677164,13.4408368 C32.5625308,13.4408368 32.7169026,13.5182917 32.8303389,13.6732015 C32.9432819,13.828549 33,14.0154035 33,14.2342028 C33,14.4346228 32.9457478,14.6127254 32.8377368,14.7676353 C32.7302191,14.9229827 32.572888,15 32.3677164,15 L26.878884,15 C26.6421476,15 26.436976,14.9501138 26.2623829,14.8499037 C26.0872966,14.7492561 26,14.6127254 26,14.4389988 L26,14.4389988 Z" id="Path"></path>
                <path d="M34,5.70572922 C34,5.515625 34.1350961,5.35069444 34.4057691,5.21050344 C34.6759615,5.07031256 34.9567307,5 35.2471153,5 C35.608173,5 35.8235577,5.11762156 35.8932692,5.35286456 L38.2682692,12.7070312 L39.545673,7.98524311 C39.6355769,7.65928822 39.95625,7.49652778 40.5072114,7.49652778 C41.0485577,7.49652778 41.3639423,7.65928822 41.4543269,7.98524311 L42.7317307,12.7070312 L45.10625,5.35286456 C45.1764422,5.11762156 45.3918268,5 45.7528846,5 C46.0432692,5 46.3235577,5.07031256 46.5942306,5.21050344 C46.8649038,5.35069444 47,5.515625 47,5.70572922 C47,5.75998267 46.9899038,5.81423611 46.9701922,5.86848967 L43.9942306,14.4027778 C43.8437499,14.8012153 43.4177884,15 42.7168268,15 C42.4163461,15 42.145673,14.9479167 41.9052884,14.84375 C41.6649038,14.7400174 41.5192308,14.592882 41.4692308,14.4027778 L40.5076923,10.7395833 L39.5307692,14.4027778 C39.4802884,14.592882 39.3350961,14.7400174 39.0947115,14.84375 C38.8543269,14.9479167 38.5836538,15 38.283173,15 C37.9725961,15 37.6971153,14.9479167 37.4567307,14.84375 C37.2158654,14.7400174 37.0658654,14.592882 37.0057691,14.4027778 L34.0298076,5.86848967 C34.0096153,5.81423611 34,5.75998267 34,5.70572922 L34,5.70572922 Z" id="Path"></path>
                <path d="M49,13.1693432 C49,12.9431087 49.0868971,12.7140403 49.261169,12.4826106 C49.4349634,12.2516531 49.6316758,12.1359382 49.8508287,12.1359382 C49.9797421,12.1359382 50.126799,12.197338 50.2910443,12.3201374 C50.4552896,12.4424647 50.6142828,12.5784887 50.7685015,12.7263204 C50.9227201,12.8746244 51.1442602,13.0101761 51.4331219,13.1329755 C51.7215059,13.255775 52.0399699,13.3167026 52.3880363,13.3167026 C52.8659709,13.3167026 53.2636927,13.2085445 53.5821567,12.9917562 C53.9006207,12.7754402 54.0596139,12.4556892 54.0596139,12.0325033 C54.0596139,11.7368399 53.9727167,11.4737656 53.7984448,11.2423359 C53.6246504,11.0113783 53.3954709,10.8191499 53.1118613,10.6665952 C52.8287292,10.5140404 52.5174271,10.3662087 52.1793874,10.2235724 C51.8408703,10.0809361 51.4999658,9.92082442 51.1566741,9.74370975 C50.8133824,9.56659508 50.5001705,9.36728212 50.2165608,9.14577078 C49.9329513,8.92425931 49.7037719,8.62906826 49.5299774,8.25972526 C49.3557056,7.89085453 49.2688083,7.47003011 49.2688083,6.99772439 C49.2688083,6.4682696 49.3757587,6.000687 49.5896596,5.59639331 C49.8035604,5.19162734 50.0895573,4.87707168 50.4476502,4.65225416 C50.8057431,4.42743664 51.1886638,4.26260198 51.5968896,4.15775017 C52.0046381,4.05289824 52.4376919,4 52.8955732,4 C53.1538775,4 53.4274606,4.01794768 53.7163222,4.05337052 C54.0047063,4.08879347 54.3107564,4.14688711 54.6344724,4.22765129 C54.9577109,4.3084156 55.2212673,4.43499353 55.4251415,4.60644054 C55.6290157,4.77835982 55.7311916,4.98050666 55.7311916,5.21335335 C55.7311916,5.4325032 55.6614829,5.65920994 55.5225428,5.89347357 C55.3831253,6.12773721 55.1940522,6.24439675 54.9553236,6.24439675 C54.8655617,6.24439675 54.621581,6.15088016 54.2238592,5.96384722 C53.8256598,5.77681403 53.383057,5.68329756 52.8955732,5.68329756 C52.3579565,5.68329756 51.9425686,5.78437092 51.64941,5.98604549 C51.3557738,6.18819234 51.208717,6.4659081 51.208717,6.82013744 C51.208717,7.10588237 51.3280812,7.35431524 51.5672873,7.5659082 C51.8060159,7.77750115 52.1020394,7.94989271 52.4553577,8.08261058 C52.8081986,8.21532846 53.1915967,8.38299702 53.6045971,8.58467159 C54.0171202,8.78634616 54.4005183,9.00549601 54.7538366,9.24164874 C55.1066775,9.47780172 55.4031784,9.81975094 55.641907,10.2674969 C55.8806356,10.715715 56,11.2399742 56,11.8402748 C56,12.8495921 55.6738967,13.6288966 55.0226451,14.1772435 C54.3704386,14.7255904 53.5124479,15 52.4477184,15 C51.5023532,15 50.6916308,14.8077717 50.0150739,14.4237872 C49.3380396,14.0407472 49,13.6222843 49,13.1693432 L49,13.1693432 Z" id="Path"></path>
            </g>
        </g>
    </g>
</svg>