<?xml version="1.0" encoding="UTF-8"?>
<svg width="67px" height="69px" viewBox="0 0 67 69" version="1.1" xmlns="http://www.w3.org/2000/svg" xmlns:xlink="http://www.w3.org/1999/xlink">
    <title>event</title>
    <g id="Home-Page-Option-&quot;2&quot;" stroke="none" stroke-width="1" fill="none" fill-rule="evenodd">
        <g id="Home-Page--Copy-5" transform="translate(-626.000000, -4791.000000)" fill="#194481" fill-rule="nonzero">
            <g id="event" transform="translate(626.000000, 4791.000000)">
                <path d="M57.8014224,31.5516227 L57.8014224,31.5516227 L57.8014224,14.1493021 C57.8014224,10.0133066 54.4194463,6.59716961 50.2891642,6.59716961 L49.3535222,6.59716961 L49.3535222,5.41749214 C49.3535222,2.46651738 46.9646931,0.0742122211 44.0180063,0.0742122211 C41.0713194,0.0742122211 38.6824903,2.46651738 38.6824903,5.41749214 L38.6824903,6.59716961 L19.118932,6.59716961 L19.118932,5.41749214 C19.118932,2.42555224 16.6969042,0 13.7093117,0 C10.7217192,0 8.29969142,2.42555224 8.29969142,5.41749214 L8.29969142,6.59716961 L7.49121255,6.59716961 C3.36107861,6.59716961 0,10.0133066 0,14.1493021 L0,54.1087241 C0,58.2448681 3.36107861,61.6626377 7.49121255,61.6626377 L30.9962351,61.6626377 C34.8714499,66.3047606 40.5994226,68.9910945 46.6413016,69 C57.8607059,69 67,59.8456257 67,48.6095985 C67,41.4880454 63.285147,35.1960364 57.8014224,31.5516227 Z M41.6466659,5.41749214 C41.6238417,4.12471525 42.6516696,3.05813721 43.942568,3.03527984 C43.9633172,3.034983 43.9840665,3.03484802 44.0048157,3.034983 C45.3078672,3.02117952 46.3755632,4.06786869 46.3893467,5.37296481 C46.3894578,5.38780725 46.3894578,5.4026497 46.3893467,5.41749214 L46.3893467,11.1983273 L41.6466659,11.1983273 L41.6466659,5.41749214 Z M11.2638669,5.41749214 C11.2779468,4.08746072 12.3660956,3.02073425 13.6941944,3.03483457 C13.6965658,3.03483457 13.6987889,3.03483457 13.701012,3.034983 C15.0340017,3.034983 16.1547565,4.08271113 16.1547565,5.41749214 L16.1547565,11.1983273 L11.2638669,11.1983273 L11.2638669,5.41749214 Z M2.96417551,14.1493021 C2.96417551,11.6499829 4.99552498,9.56565846 7.49121255,9.56565846 L8.29969142,9.56565846 L8.29969142,12.7443163 C8.29969142,13.5639161 8.98323029,14.1668162 9.80178735,14.1668162 L17.6005331,14.1668162 C18.418942,14.1668162 19.118932,13.5639161 19.118932,12.7443163 L19.118932,9.56565846 L38.6824903,9.56565846 L38.6824903,12.7443163 C38.6605555,13.5079601 39.2609492,14.1448493 40.0234833,14.1668162 C40.0507538,14.1675583 40.0780242,14.1675583 40.1052946,14.1668162 L47.9040403,14.1668162 C48.6784312,14.192642 49.327141,13.5848439 49.3529293,12.8093262 C49.3536704,12.7876562 49.3538186,12.7659863 49.3535222,12.7443163 L49.3535222,9.56565846 L50.2891642,9.56565846 C52.8017475,9.59103904 54.8277615,11.6330625 54.8372469,14.1493021 L54.8372469,18.9163983 L2.96417551,18.9163983 L2.96417551,14.1493021 Z M7.49121255,58.6941489 C4.99552498,58.6941489 2.96417551,56.6080433 2.96417551,54.1087241 L2.96417551,21.8848872 L54.8372469,21.8848872 L54.8372469,29.9375069 C52.2573767,28.8030988 49.4701625,28.2180097 46.6525654,28.2190487 C35.4331612,28.2190487 26.299499,37.3867812 26.299499,48.6228083 C26.293867,52.1527868 27.2049064,55.6233956 28.9433953,58.6941489 L7.49121255,58.6941489 Z M46.6413016,66.0050916 C37.0406335,66.0050916 29.2577461,58.2108789 29.2577461,48.5962403 C29.2577461,38.9816018 37.0406335,31.1873891 46.6413016,31.1873891 C56.2419696,31.1873891 64.024857,38.9816018 64.024857,48.5962403 C64.024857,48.5962403 64.024857,48.5963888 64.024857,48.5963888 C64.0140378,58.2064261 56.2375234,65.9942566 46.6413016,66.0050916 Z" id="Shape"></path>
                <path d="M53.509687,48.8947523 L46.9806259,48.8947523 L46.9806259,39.5526225 C46.9806259,38.6951091 46.3134128,38 45.490313,38 C44.6672131,38 44,38.6951091 44,39.5526225 L44,50.4458222 C44.0131148,51.3092356 44.6894188,52.00155 45.5183308,52 L53.509687,52 C54.3327869,52 55,51.3048883 55,50.4473749 C55,49.5898614 54.3327869,48.8947523 53.509687,48.8947523 Z" id="Path"></path>
            </g>
        </g>
    </g>
</svg>