<?xml version="1.0" encoding="UTF-8"?>
<svg width="168px" height="168px" viewBox="0 0 168 168" version="1.1" xmlns="http://www.w3.org/2000/svg" xmlns:xlink="http://www.w3.org/1999/xlink">
    <title>risk</title>
    <g id="Home-Page-Option-&quot;2&quot;" stroke="none" stroke-width="1" fill="none" fill-rule="evenodd">
        <g id="Home-Page--Copy-5" transform="translate(-1082.000000, -2363.000000)" fill="#194481" fill-rule="nonzero">
            <g id="risk" transform="translate(1082.000000, 2363.000000)">
                <path d="M54,76 C33.0457143,76 16,93.0457143 16,114 C16,134.954286 33.0457143,152 54,152 C74.9542857,152 92,134.954286 92,114 C92,93.0457143 74.9542857,76 54,76 Z M54,146.571429 C36.0395714,146.571429 21.4285714,131.960429 21.4285714,114 C21.4285714,96.0395714 36.0395714,81.4285714 54,81.4285714 C71.9604286,81.4285714 86.5714286,96.0395714 86.5714286,114 C86.5714286,131.960429 71.9604286,146.571429 54,146.571429 Z" id="Shape"></path>
                <path d="M76.347915,111 L82,110.104319 C81.6680294,108.010595 81.0985282,105.956805 80.3086672,104 L75,106.127954 C75.6267375,107.688264 76.0817661,109.328443 76.347915,111 Z" id="Path"></path>
                <path d="M75,120.296232 L80.8384014,122 C81.467854,119.853616 81.8601216,117.625379 82,115.372889 L75.9304952,115 C75.8149435,116.803811 75.5047785,118.583369 75,120.296232 Z" id="Path"></path>
                <path d="M71,129.162531 L75.2908567,133 C76.7105832,131.414959 77.9604032,129.671701 79,127.8105 L73.9719222,125 C73.1396688,126.492988 72.137509,127.893923 71,129.162531 L71,129.162531 Z" id="Path"></path>
                <path d="M54.5027471,87 L53.5025808,87 C49.365893,87 46,90.3653333 46,94.4986667 L48.373728,113.997333 C48.712451,116.850667 51.1315199,119 54.0013304,119 C56.8711409,119 59.2902098,116.850667 59.6262657,114.021333 L61.9226475,95.8346667 L62,94.5013333 C62.0026608,90.3653333 58.6367678,87 54.5027471,87 L54.5027471,87 Z M54.332052,113.370667 C54.2893783,113.709333 53.7159496,113.730667 53.6679416,113.349333 L51.400898,95.4853333 L51.3342203,94.432 C51.3715598,93.2693333 52.3290523,92.3333333 53.4999137,92.3333333 L54.50008,92.3333333 C55.6949453,92.3333333 56.6657734,93.304 56.6711076,94.328 L54.332052,113.370667 Z" id="Shape"></path>
                <path d="M54,125 C49.5893333,125 46,128.589333 46,133 C46,137.410667 49.5893333,141 54,141 C58.4106667,141 62,137.410667 62,133 C62,128.589333 58.4106667,125 54,125 Z M54,135.666667 C52.528,135.666667 51.3333333,134.472 51.3333333,133 C51.3333333,131.528 52.528,130.333333 54,130.333333 C55.472,130.333333 56.6666667,131.528 56.6666667,133 C56.6666667,134.472 55.472,135.666667 54,135.666667 Z" id="Shape"></path>
                <path d="M96.3073548,89.283871 L97.5944516,86.7096774 L149.032258,86.7096774 C159.488903,86.7096774 168,78.1985806 168,67.7419355 C168,58.2580645 161.003613,50.3783226 151.739226,48.9990968 C151.741935,48.9232258 151.741935,48.8473548 151.741935,48.7741935 C151.741935,36.8218065 142.016903,27.0967742 130.064516,27.0967742 C126.317032,27.0967742 122.789032,28.0532903 119.710839,29.7332903 C114.226452,21.3793548 104.967484,16.2580645 94.8387097,16.2580645 C89.2892903,16.2580645 84.1083871,17.8107097 79.6563871,20.4607742 C75.7381935,17.2687742 70.7469677,15.7405161 65.5308387,16.3962581 C61.2874839,6.49780645 51.5651613,0 40.6451613,0 C25.704,0 13.5483871,12.1556129 13.5483871,27.0967742 C13.5483871,28.988129 13.7651613,30.8469677 14.1472258,32.6705806 C6.17806452,33.7110968 0,40.5259355 0,48.7741935 C0,57.7405161 7.29174194,65.0322581 16.2580645,65.0322581 L42.3034839,65.0322581 L41.756129,66.6743226 C37.5263226,67.788 33.4726452,69.4707097 29.6709677,71.6926452 L23.0024516,68.3570323 L8.74141935,82.6180645 L12.0770323,89.2865806 C9.85780645,93.0882581 8.17509677,97.1419355 7.05870968,101.371742 L0,103.723742 L0,123.886452 L7.06141935,126.241161 C8.17509677,130.470968 9.85780645,134.524645 12.0797419,138.326323 L8.74412903,144.994839 L23.0051613,159.255871 L29.6736774,155.920258 C33.4753548,158.139484 37.5290323,159.822194 41.7588387,160.938581 L44.1108387,168 L64.2735484,168 L66.6282581,160.938581 C70.8580645,159.824903 74.9117419,158.142194 78.7134194,155.920258 L85.3819355,159.255871 L99.6429677,144.994839 L96.3073548,138.326323 C98.5265806,134.524645 100.20929,130.470968 101.325677,126.241161 L108.387097,123.889161 L108.387097,103.726452 L101.325677,101.371742 C100.20929,97.1419355 98.5265806,93.0882581 96.3073548,89.283871 L96.3073548,89.283871 Z M115.326581,32.9252903 C111.069677,36.884129 108.387097,42.5148387 108.387097,48.7741935 L113.806452,48.7741935 C113.806452,39.807871 121.098194,32.516129 130.064516,32.516129 C139.030839,32.516129 146.322581,39.807871 146.322581,48.7741935 C146.322581,49.4624516 146.262968,50.2049032 146.132903,51.1099355 L145.908,54.1935484 L149.032258,54.1935484 C156.502839,54.1935484 162.580645,60.2713548 162.580645,67.7419355 C162.580645,75.2125161 156.502839,81.2903226 149.032258,81.2903226 L98.3179355,81.2903226 L85.3846452,68.3570323 L78.716129,71.6926452 C74.9144516,69.4734194 70.8607742,67.7907097 66.6309677,66.6743226 L64.2762581,59.6129032 L56.9113548,59.6129032 C59.4259355,56.2691613 63.4091613,54.1935484 67.7419355,54.1935484 C73.4756129,54.1935484 78.6104516,57.8245161 80.5180645,63.2249032 L85.6312258,61.4202581 C83.2846452,54.7788387 77.456129,50.0585806 70.6385806,49.0018065 C70.5220645,48.0290323 70.4516129,47.048129 70.4516129,46.0645161 C70.4516129,32.6163871 81.3905806,21.6774194 94.8387097,21.6774194 C103.214323,21.6774194 110.858323,25.9587097 115.326581,32.9252903 L115.326581,32.9252903 Z M16.2580645,59.6129032 C10.2805161,59.6129032 5.41935484,54.7517419 5.41935484,48.7741935 C5.41935484,42.7966452 10.2805161,37.9354839 16.2580645,37.9354839 C22.2356129,37.9354839 27.0967742,42.7966452 27.0967742,48.7741935 L32.516129,48.7741935 C32.516129,41.0136774 27.048,34.5185806 19.7670968,32.9090323 C19.244129,31.0285161 18.9677419,29.0829677 18.9677419,27.0967742 C18.9677419,15.1443871 28.6927742,5.41935484 40.6451613,5.41935484 C50.0206452,5.41935484 58.2905806,11.4077419 61.2251613,20.3171613 L62.0136774,22.7125161 L64.4578065,22.0974194 C68.3272258,21.1327742 72.0340645,21.8562581 75.0580645,23.8289032 C68.9233548,29.2943226 65.0322581,37.2228387 65.0322581,46.0645161 C65.0322581,47.0372903 65.1,48.0073548 65.1948387,48.9747097 C58.8785806,49.8336774 53.4077419,53.8385806 50.6574194,59.6129032 L48.7741935,59.6129032 L44.1108387,59.6129032 L16.2580645,59.6129032 Z M102.967742,119.981806 L96.7517419,122.05471 L96.4103226,123.539613 C95.3372903,128.213806 93.4892903,132.663097 90.9205161,136.765548 L90.1130323,138.058065 L93.0503226,143.929935 L84.3143226,152.665935 L78.4424516,149.728645 L77.1499355,150.536129 C73.0474839,153.104903 68.5981935,154.952903 63.924,156.025935 L62.4390968,156.367355 L60.3689032,162.580645 L48.0154839,162.580645 L45.9425806,156.364645 L44.4576774,156.023226 C39.7834839,154.950194 35.3341935,153.102194 31.2317419,150.533419 L29.9392258,149.725935 L24.0727742,152.663226 L15.3367742,143.927226 L18.2740645,138.055355 L17.4665806,136.762839 C14.8978065,132.660387 13.0498065,128.211097 11.9767742,123.536903 L11.6353548,122.052 L5.41935484,119.981806 L5.41935484,107.628387 L11.6353548,105.555484 L11.9767742,104.070581 C13.0498065,99.3963871 14.8978065,94.9470968 17.4665806,90.8446452 L18.2740645,89.552129 L15.3367742,83.6856774 L24.0727742,74.9496774 L29.9446452,77.8869677 L31.2371613,77.0794839 C35.3396129,74.5107097 39.7889032,72.6627097 44.4630968,71.5896774 L45.948,71.2482581 L48.0181935,65.0322581 L48.7741935,65.0322581 L60.3689032,65.0322581 L62.4418065,71.2482581 L63.9267097,71.5896774 C68.6009032,72.6627097 73.0501935,74.5107097 77.1526452,77.0794839 L78.4451613,77.8869677 L84.3170323,74.9496774 L93.0530323,83.6856774 L90.1157419,89.5575484 L90.9232258,90.8500645 C93.492,94.9525161 95.34,99.4018065 96.4130323,104.076 L96.7544516,105.560903 L102.967742,107.631097 L102.967742,119.981806 Z" id="Shape"></path>
                <path d="M24,28 L29.3333333,28 C29.3333333,22.1173333 34.1173333,17.3333333 40,17.3333333 L40,12 C31.176,12 24,19.176 24,28 Z" id="Path"></path>
                <path d="M80.4285714,46 C80.4285714,38.5167143 86.5167143,32.4285714 94,32.4285714 L94,27 C83.5255714,27 75,35.5255714 75,46 L80.4285714,46 Z" id="Path"></path>
                <path d="M135.5,48 L141,48 C141,41.9335 136.0665,37 130,37 L130,42.5 C133.03325,42.5 135.5,44.96675 135.5,48 Z" id="Path"></path>
                <path d="M157,68 C157,63.5893333 153.376154,60 148.923077,60 L148.923077,65.3333333 C150.409231,65.3333333 151.615385,66.528 151.615385,68 C151.615385,69.472 150.409231,70.6666667 148.923077,70.6666667 L122,70.6666667 L122,76 L148.923077,76 C153.376154,76 157,72.4106667 157,68 Z" id="Path"></path>
                <polygon id="Path" points="111 71 117 71 117 77 111 77"></polygon>
                <polygon id="Path" points="100 71 106 71 106 77 100 77"></polygon>
                <polygon id="Path" transform="translate(143.580387, 143.612903) rotate(-45.000000) translate(-143.580387, -143.612903) " points="140.871119 139.781998 146.289655 139.781998 146.289655 147.443808 140.871119 147.443808"></polygon>
                <polygon id="Path" transform="translate(125.972903, 126.000000) rotate(-45.000000) translate(-125.972903, -126.000000) " points="123.263635 108.758217 128.682171 108.758217 128.682171 143.241783 123.263635 143.241783"></polygon>
                <polygon id="Path" transform="translate(151.709419, 135.486581) rotate(-45.000000) translate(-151.709419, -135.486581) " points="149.000151 131.655675 154.418688 131.655675 154.418688 139.317486 149.000151 139.317486"></polygon>
                <polygon id="Path" transform="translate(143.583097, 127.357548) rotate(-45.000000) translate(-143.583097, -127.357548) " points="140.873829 123.526643 146.292365 123.526643 146.292365 131.188454 140.873829 131.188454"></polygon>
                <polygon id="Path" transform="translate(124.620774, 108.389806) rotate(-45.000000) translate(-124.620774, -108.389806) " points="121.911506 89.2325708 127.330042 89.2325708 127.330042 127.547042 121.911506 127.547042"></polygon>
                <polygon id="Path" transform="translate(159.838452, 127.357548) rotate(-45.000000) translate(-159.838452, -127.357548) " points="157.129183 123.526643 162.54772 123.526643 162.54772 131.188454 157.129183 131.188454"></polygon>
                <polygon id="Path" transform="translate(142.230968, 109.744645) rotate(-45.000000) translate(-142.230968, -109.744645) " points="139.5217 92.5028622 144.940236 92.5028622 144.940236 126.986428 139.5217 126.986428"></polygon>
            </g>
        </g>
    </g>
</svg>