<?xml version="1.0" encoding="utf-8"?>
<!-- Generator: Adobe Illustrator 23.0.2, SVG Export Plug-In . SVG Version: 6.00 Build 0)  -->
<svg version="1.1" id="Layer_1" xmlns="http://www.w3.org/2000/svg" xmlns:xlink="http://www.w3.org/1999/xlink" x="0px" y="0px"
	 viewBox="0 0 443.4 148.4" style="enable-background:new 0 0 443.4 148.4;" xml:space="preserve">
<style type="text/css">
	.st0{fill:#4E4E50;}
</style>
<g>
	<g>
		<g>
			<path class="st0" d="M152.8,92.4l1.2-8.1c4.5,0.6,8.2,1,10.6,1c5.4,0,6-1.4,6-2.4c0-3.8-17.6-2-17.6-14.5
				c0-7.6,7.1-11.1,14.7-11.1c4.3,0,8.1,0.7,11.8,2l-1.8,7.8c-3.4-0.8-6.1-1.3-9.7-1.3c-3.7,0-4.4,1.3-4.4,2.1
				c0,4,17.5,2.9,17.5,14.6c0,9.2-9.7,11.5-15.6,11.5C160.5,93.8,156.4,93.4,152.8,92.4z"/>
		</g>
		<g>
			<path class="st0" d="M186.4,58.1H197v2.5c1.4-1.2,5.3-3.4,8.5-3.4c9.6,0,15.4,4.4,15.4,16.8c0,14.6-9.4,19.7-19.6,19.7
				c-1.6,0-3-0.2-4.3-0.3v13.7h-10.6V58.1z M210.1,74.3c0-6.3-2.5-8.1-7.9-8.1c-1.8,0-3.9,0.5-5.3,1v18.1c1,0.1,2.8,0.4,4.5,0.4
				C207,85.6,210.1,80.8,210.1,74.3z"/>
		</g>
		<g>
			<path class="st0" d="M226.5,58.1h10.7v4.7c1.7-2.2,5-5.4,9-5.4c1.9,0,3.3,0.1,4.8,0.6l-1.4,8.8c-2-0.4-2.8-0.4-4.7-0.4
				c-3.1,0-6.3,1.5-7.8,3v23.7h-10.7V58.1z"/>
		</g>
		<g>
			<path class="st0" d="M252.4,47.2l7.1-7.1l7.2,7.1l-7.2,7.2L252.4,47.2z M254.2,58.1h10.6v35h-10.6V58.1z"/>
		</g>
		<g>
			<path class="st0" d="M272.2,58.1h10.7v3.5c2.1-1.6,6.7-4.4,11.4-4.4c11,0,11.7,6,11.7,14v21.9h-10.6v-21c0-4.8-1.1-5.6-4.7-5.6
				c-3.2,0-6.1,1-7.8,1.9v24.8h-10.7V58.1z"/>
		</g>
		<g>
			<path class="st0" d="M314.8,82.2V66h-5.1v-7.9h5.1v-7.2h10.6v7.2h10.8V66h-10.8v16.1c0,2.6,1,2.8,3.8,2.8c2.4,0,7.6-0.7,7.6-0.7
				l1,8.4c-2.5,0.7-5.9,1.2-8.5,1.2C322.7,93.8,314.8,94.1,314.8,82.2z"/>
		</g>
		<g>
			<path class="st0" d="M340.4,47.2l7.1-7.1l7.2,7.1l-7.2,7.2L340.4,47.2z M342.3,58.1h10.6v35h-10.6V58.1z"/>
		</g>
		<g>
			<path class="st0" d="M356.5,58.1H368l5.9,19l1.8,7l2-7l6.5-19h11.2l-13.6,35h-12.7L356.5,58.1z"/>
		</g>
		<g>
			<path class="st0" d="M395.9,76.1c0-14.3,7.5-18.8,18.1-18.8c11,0,15.2,7.2,15.2,17.7v3.8h-22.7c-0.1,5.5,4.3,6.5,9.9,6.5
				c2.4,0,6.3-0.8,10-1.4l1.6,8.1c-3.9,1.2-8.9,1.7-13.1,1.7C403.4,93.8,395.9,90.1,395.9,76.1z M418.3,72c0.1-4.2-1.7-7.2-5.2-7.2
				c-3.7,0-6,2.6-6.2,7.2H418.3z"/>
		</g>
	</g>
	<g>
		<g>
			<path class="st0" d="M74,137.5c-0.5,0-1-0.1-1.5-0.4l-53.3-31c-0.9-0.5-1.5-1.5-1.5-2.5V41.9c0-1,0.6-2,1.5-2.5
				c0.9-0.5,2-0.5,2.9,0l53.2,30.9c0.9,0.5,1.5,1.5,1.5,2.5l0.1,61.8c0,1-0.6,2-1.5,2.5C75,137.4,74.5,137.5,74,137.5z M23.5,101.8
				L71,129.5l-0.1-55L23.5,47V101.8z"/>
		</g>
		<g>
			<path class="st0" d="M100.6,122H47.3c-1.6,0-2.9-1.3-2.9-2.9V57.3c0-1.6,1.3-2.9,2.9-2.9h53.3c1.6,0,2.9,1.3,2.9,2.9V119
				C103.6,120.7,102.2,122,100.6,122z M50.2,116.1h47.5V60.2H50.2V116.1z"/>
		</g>
		<g>
			<path class="st0" d="M74,137.5c-0.5,0-1-0.1-1.5-0.4c-0.9-0.5-1.5-1.5-1.5-2.5l-0.1-61.8c0-1,0.6-2,1.5-2.5l53.4-30.9
				c0.9-0.5,2-0.5,2.9,0c0.9,0.5,1.5,1.5,1.5,2.5v61.7c0,1-0.6,2-1.5,2.5l-53.3,31C75,137.4,74.5,137.5,74,137.5z M76.8,74.5l0.1,55
				l47.5-27.6V46.9L76.8,74.5z M127.3,103.5L127.3,103.5L127.3,103.5z"/>
		</g>
		<g>
			<path class="st0" d="M74,109.9c-0.3,0-0.5,0-0.8-0.1c-0.8-0.2-1.4-0.7-1.8-1.4L44.7,58.7c-0.7-1.4-0.3-3.1,1.1-3.9l52.7-30.4
				c0.7-0.4,2.2-0.3,3-0.1c0.8,0.2,2.5,1.9,2.9,2.6l25.4,47.8c0.7,1.4,0.2,3.1-1.1,3.9l-53.3,31C75,109.8,74.5,109.9,74,109.9z
				 M51.2,58.4L75.1,103l48.3-28.1L99.7,30.5L51.2,58.4z"/>
		</g>
		<g>
			<path class="st0" d="M73.9,75.7c-0.5,0-1-0.1-1.5-0.4L19.1,44.4c-0.9-0.5-1.5-1.5-1.5-2.5c0-1,0.6-2,1.5-2.5L72.5,8.4
				c0.9-0.5,2-0.5,2.9,0l53.3,30.9c0.9,0.5,1.5,1.5,1.5,2.5c0,1-0.6,2-1.5,2.5L75.3,75.3C74.9,75.6,74.4,75.7,73.9,75.7z M26.5,41.9
				l47.4,27.5l47.6-27.5L74,14.4L26.5,41.9z"/>
		</g>
		<g>
			<line class="st0" x1="127.4" y1="41.9" x2="73.9" y2="72.8"/>
		</g>
	</g>
</g>
</svg>
